<svg width="1710" height="842" viewBox="0 0 1710 842" fill="none" xmlns="http://www.w3.org/2000/svg">
<path d="M9 433V9H319C539.914 9 719 188.086 719 409V833H409C188.086 833 9 653.914 9 433Z" fill="black" stroke="black" stroke-width="18"/>
<path d="M969.3 289.4L894.6 500H830.4L755.7 289.4H810.3L862.5 448.4L915 289.4H969.3ZM1016.54 315.2C1007.54 315.2 1000.14 312.6 994.341 307.4C988.741 302 985.941 295.4 985.941 287.6C985.941 279.6 988.741 273 994.341 267.8C1000.14 262.4 1007.54 259.7 1016.54 259.7C1025.34 259.7 1032.54 262.4 1038.14 267.8C1043.94 273 1046.84 279.6 1046.84 287.6C1046.84 295.4 1043.94 302 1038.14 307.4C1032.54 312.6 1025.34 315.2 1016.54 315.2ZM1042.04 332.6V500H990.741V332.6H1042.04ZM1147.32 502.4C1132.72 502.4 1119.72 499.9 1108.32 494.9C1096.92 489.9 1087.92 483.1 1081.32 474.5C1074.72 465.7 1071.02 455.9 1070.22 445.1H1120.92C1121.52 450.9 1124.22 455.6 1129.02 459.2C1133.82 462.8 1139.72 464.6 1146.72 464.6C1153.12 464.6 1158.02 463.4 1161.42 461C1165.02 458.4 1166.82 455.1 1166.82 451.1C1166.82 446.3 1164.32 442.8 1159.32 440.6C1154.32 438.2 1146.22 435.6 1135.02 432.8C1123.02 430 1113.02 427.1 1105.02 424.1C1097.02 420.9 1090.12 416 1084.32 409.4C1078.52 402.6 1075.62 393.5 1075.62 382.1C1075.62 372.5 1078.22 363.8 1083.42 356C1088.82 348 1096.62 341.7 1106.82 337.1C1117.22 332.5 1129.52 330.2 1143.72 330.2C1164.72 330.2 1181.22 335.4 1193.22 345.8C1205.42 356.2 1212.42 370 1214.22 387.2H1166.82C1166.02 381.4 1163.42 376.8 1159.02 373.4C1154.82 370 1149.22 368.3 1142.22 368.3C1136.22 368.3 1131.62 369.5 1128.42 371.9C1125.22 374.1 1123.62 377.2 1123.62 381.2C1123.62 386 1126.12 389.6 1131.12 392C1136.32 394.4 1144.32 396.8 1155.12 399.2C1167.52 402.4 1177.62 405.6 1185.42 408.8C1193.22 411.8 1200.02 416.8 1205.82 423.8C1211.82 430.6 1214.92 439.8 1215.12 451.4C1215.12 461.2 1212.32 470 1206.72 477.8C1201.32 485.4 1193.42 491.4 1183.02 495.8C1172.82 500.2 1160.92 502.4 1147.32 502.4ZM1272.3 315.2C1263.3 315.2 1255.9 312.6 1250.1 307.4C1244.5 302 1241.7 295.4 1241.7 287.6C1241.7 279.6 1244.5 273 1250.1 267.8C1255.9 262.4 1263.3 259.7 1272.3 259.7C1281.1 259.7 1288.3 262.4 1293.9 267.8C1299.7 273 1302.6 279.6 1302.6 287.6C1302.6 295.4 1299.7 302 1293.9 307.4C1288.3 312.6 1281.1 315.2 1272.3 315.2ZM1297.8 332.6V500H1246.5V332.6H1297.8ZM1411.18 502.4C1394.78 502.4 1379.98 498.9 1366.78 491.9C1353.78 484.9 1343.48 474.9 1335.88 461.9C1328.48 448.9 1324.78 433.7 1324.78 416.3C1324.78 399.1 1328.58 384 1336.18 371C1343.78 357.8 1354.18 347.7 1367.38 340.7C1380.58 333.7 1395.38 330.2 1411.78 330.2C1428.18 330.2 1442.98 333.7 1456.18 340.7C1469.38 347.7 1479.78 357.8 1487.38 371C1494.98 384 1498.78 399.1 1498.78 416.3C1498.78 433.5 1494.88 448.7 1487.08 461.9C1479.48 474.9 1468.98 484.9 1455.58 491.9C1442.38 498.9 1427.58 502.4 1411.18 502.4ZM1411.18 458C1420.98 458 1429.28 454.4 1436.08 447.2C1443.08 440 1446.58 429.7 1446.58 416.3C1446.58 402.9 1443.18 392.6 1436.38 385.4C1429.78 378.2 1421.58 374.6 1411.78 374.6C1401.78 374.6 1393.48 378.2 1386.88 385.4C1380.28 392.4 1376.98 402.7 1376.98 416.3C1376.98 429.7 1380.18 440 1386.58 447.2C1393.18 454.4 1401.38 458 1411.18 458ZM1627.99 330.8C1647.59 330.8 1663.19 337.2 1674.79 350C1686.59 362.6 1692.49 380 1692.49 402.2V500H1641.49V409.1C1641.49 397.9 1638.59 389.2 1632.79 383C1626.99 376.8 1619.19 373.7 1609.39 373.7C1599.59 373.7 1591.79 376.8 1585.99 383C1580.19 389.2 1577.29 397.9 1577.29 409.1V500H1525.99V332.6H1577.29V354.8C1582.49 347.4 1589.49 341.6 1598.29 337.4C1607.09 333 1616.99 330.8 1627.99 330.8Z" fill="black"/>
<path d="M214.2 502.1C194.8 502.1 177.2 497.6 161.4 488.6C145.6 479.4 133.1 466.7 123.9 450.5C114.9 434.1 110.4 415.6 110.4 395C110.4 374.4 114.9 356 123.9 339.8C133.1 323.4 145.6 310.7 161.4 301.7C177.2 292.5 194.8 287.9 214.2 287.9C233.8 287.9 251.5 292.5 267.3 301.7C283.1 310.7 295.5 323.4 304.5 339.8C313.5 356 318 374.4 318 395C318 415.6 313.5 434.1 304.5 450.5C295.5 466.7 283.1 479.4 267.3 488.6C251.5 497.6 233.8 502.1 214.2 502.1ZM214.2 483.8C229.8 483.8 243.8 480.2 256.2 473C268.6 465.8 278.4 455.5 285.6 442.1C292.8 428.5 296.4 412.8 296.4 395C296.4 377.2 292.8 361.6 285.6 348.2C278.4 334.8 268.6 324.5 256.2 317.3C243.8 310.1 229.8 306.5 214.2 306.5C198.6 306.5 184.6 310.1 172.2 317.3C159.8 324.5 150 334.8 142.8 348.2C135.6 361.6 132 377.2 132 395C132 412.8 135.6 428.5 142.8 442.1C150 455.5 159.8 465.8 172.2 473C184.6 480.2 198.6 483.8 214.2 483.8ZM498.326 336.2V500H477.326V471.2C472.526 481.4 465.126 489.2 455.126 494.6C445.126 500 433.926 502.7 421.526 502.7C401.926 502.7 385.926 496.7 373.526 484.7C361.126 472.5 354.926 454.9 354.926 431.9V336.2H375.626V429.5C375.626 447.3 380.026 460.9 388.826 470.3C397.826 479.7 410.026 484.4 425.426 484.4C441.226 484.4 453.826 479.4 463.226 469.4C472.626 459.4 477.326 444.7 477.326 425.3V336.2H498.326ZM567.27 365.3C571.87 355.1 578.87 347.2 588.27 341.6C597.87 336 609.57 333.2 623.37 333.2V355.1H617.67C602.47 355.1 590.27 359.2 581.07 367.4C571.87 375.6 567.27 389.3 567.27 408.5V500H546.27V336.2H567.27V365.3Z" fill="white"/>
</svg>
