<svg width="24" height="24" viewBox="0 0 24 24" fill="none" xmlns="http://www.w3.org/2000/svg">
<g clip-path="url(#clip0_63_22)">
<path d="M1.59229 11.7939L2.29294 12.5201L17.6928 12.3776L3.35869 13.6246L4.63766 14.9501L18.0718 12.8536L15.7374 14.3449L17.0142 14.4569L15.494 16.0543L22.4196 12.1772L15.5424 7.9977L17.2013 10.4078L15.9047 10.2927L17.5919 11.2905L4.74851 8.7485L4.24544 9.23391L11.9786 10.8452L4.06545 10.3702L9.29754 11.3383L2.13839 11.267L1.59229 11.7939ZM13.33 4.47141L13.4401 6.03625L19.1992 9.52095L14.8171 4.29147L13.33 4.47137L13.33 4.47141ZM15.2303 16.8766L15.1779 17.9463L16.2647 18.0972L19.3432 14.5717L15.2303 16.8767L15.2303 16.8766Z" fill="black"/>
</g>
<defs>
<clipPath id="clip0_63_22">
<rect width="16" height="16" fill="white" transform="translate(0.687988 11.7979) rotate(-43.9767)"/>
</clipPath>
</defs>
</svg>
