<svg width="78" height="76" viewBox="0 0 78 76" fill="none" xmlns="http://www.w3.org/2000/svg">
<path d="M76.2239 44.5031L72.4222 40.7014C70.9801 39.2594 68.634 39.2594 67.1919 40.7014L66.9533 40.9401L64.6306 38.6174C64.439 38.4258 64.2609 38.2174 64.076 38.0191L69.5314 32.5637C70.6104 31.4847 71.2054 30.0494 71.2054 28.5234C71.2054 26.9973 70.6104 25.562 69.5314 24.483C68.4591 23.4108 67.0642 22.8696 65.6592 22.8292C66.9264 20.6444 66.6474 17.7973 64.7785 15.9285C63.7768 14.9267 62.4894 14.3991 61.1785 14.2982L61.9247 13.552C63.0037 12.473 63.5987 11.0377 63.5987 9.51171C63.5987 7.9857 63.0037 6.55038 61.9247 5.4714C60.8458 4.39241 59.4104 3.79746 57.8844 3.79746C56.3584 3.79746 54.9231 4.39242 53.8441 5.4714L53.0946 6.22097C52.9937 4.90673 52.466 3.62269 51.4677 2.62098C49.5081 0.661358 46.4694 0.429367 44.2509 1.9151L44.2039 1.86804C41.7131 -0.62268 37.6627 -0.62268 35.172 1.86804L33.2696 3.77052C33.1889 3.8512 33.125 3.94195 33.0578 4.02934L32.5704 3.54195C30.3419 1.31342 26.7183 1.31342 24.4898 3.54867C23.4881 4.55038 22.9638 5.83433 22.8629 7.14531L22.1167 6.39909C19.8915 4.17057 16.2646 4.17057 14.0361 6.39909C11.8075 8.62762 11.8075 12.2512 14.0361 14.4797L14.7823 15.2259C13.4243 15.3301 12.1571 15.8848 11.1856 16.8562C9.31673 18.7251 9.03775 21.5688 10.3017 23.7536C8.84285 23.7973 7.47138 24.3721 6.43275 25.4141C4.20758 27.6393 4.20758 31.2628 6.43275 33.4914L12.3252 39.3838L10.3487 41.3637L10.1134 41.1284C8.6714 39.6863 6.32524 39.6863 4.88322 41.1284L1.08152 44.9301C-0.360507 46.3721 -0.360507 48.7182 1.08152 50.1603L25.8011 74.8799C26.5205 75.5992 27.4684 75.9622 28.4163 75.9622C29.3642 75.9622 30.3087 75.6026 31.0314 74.8799L34.8331 71.0782C35.5323 70.379 35.9155 69.4513 35.9155 68.4631C35.9155 67.4748 35.5323 66.5471 34.8331 65.8479L34.5945 65.6093L37.3911 62.8126C37.8751 62.3286 38.3962 61.8782 38.897 61.4109C39.2398 61.737 39.5827 62.0597 39.9188 62.3924L42.7155 65.1891L42.4768 65.4277C41.0348 66.8697 41.0348 69.2159 42.4768 70.6579L46.2785 74.4596C46.9777 75.1588 47.9054 75.542 48.8937 75.542C49.8819 75.542 50.8097 75.1588 51.5088 74.4596L76.2284 49.74C76.9276 49.0409 77.3108 48.1131 77.3108 47.1249C77.3108 46.1367 76.9276 45.2089 76.2284 44.5097L76.2239 44.5031ZM50.0422 4.03975C51.4843 5.48177 51.4843 7.82793 50.0422 9.26996L43.3633 15.9489C43.1885 14.7389 42.6507 13.6162 41.77 12.7355L38.9431 9.90854L44.8119 4.03966C46.254 2.59763 48.6002 2.59772 50.0422 4.03975ZM34.6978 5.18929L36.6003 3.28681C38.2944 1.59265 41.0372 1.58594 42.7414 3.25656L37.5179 8.48006L34.6944 5.65314C34.5701 5.52205 34.5701 5.31364 34.6978 5.18591L34.6978 5.18929ZM25.9215 4.96072C27.3636 3.5187 29.7064 3.5187 31.145 4.96072L33.2459 7.06491C33.2559 7.07499 33.2593 7.08507 33.2694 7.0918L36.6913 10.5137C36.6946 10.517 36.7013 10.5204 36.7047 10.5238L40.3417 14.1607C41.0409 14.8599 41.424 15.7876 41.424 16.7725C41.424 17.7607 41.0408 18.6885 40.3383 19.391C38.8963 20.8331 36.5535 20.8297 35.1148 19.391L25.9152 10.1914C24.4765 8.7494 24.4761 6.40611 25.9215 4.96072ZM15.4613 7.81449C16.9033 6.37246 19.2495 6.37246 20.6915 7.81449L33.6868 20.8098C34.3859 21.5089 34.7691 22.4366 34.7691 23.4249C34.7691 24.4132 34.3826 25.3443 33.6834 26.0434C32.2414 27.4821 29.8986 27.4788 28.4566 26.0401L28.4465 26.03L19.2666 16.8502L15.465 13.0485C14.0229 11.6064 14.0229 9.26028 15.465 7.81825L15.4613 7.81449ZM12.6109 18.2713C14.0529 16.8293 16.3957 16.8326 17.8377 18.2679L27.021 27.4512C27.7201 28.1504 28.1033 29.0781 28.1 30.0664C28.1 31.0546 27.7134 31.9857 27.0076 32.6849C25.5689 34.1168 23.2362 34.1168 21.7941 32.6882C21.7941 32.6882 21.7941 32.6849 21.7908 32.6849C21.7908 32.6849 14.4966 25.3874 14.4899 25.3807L12.6076 23.4983C11.1656 22.0563 11.1656 19.7101 12.6076 18.2715L12.6109 18.2713ZM7.86132 26.8259C8.56048 26.1267 9.48819 25.7436 10.4731 25.7436C11.4512 25.7436 12.3689 26.1234 13.0647 26.8091L20.3588 34.1066C20.3622 34.11 20.3655 34.11 20.3689 34.1133C21.8009 35.5486 21.8042 37.8881 20.3723 39.3268C19.6765 40.0293 18.7454 40.4158 17.7571 40.4158H17.7504C16.7622 40.4158 15.8344 40.0326 15.1386 39.3335L14.4495 38.6444V38.641L7.86135 32.0529C6.41932 30.6108 6.41932 28.268 7.86471 26.826L7.86132 26.8259ZM33.4044 69.6393L29.6028 73.441C28.9675 74.0763 27.8616 74.0763 27.2263 73.441L2.5041 48.7248C1.84864 48.0693 1.84864 47.0038 2.5041 46.3483L6.30579 42.5466C6.63185 42.2206 7.06545 42.0559 7.4957 42.0559C7.92594 42.0559 8.3562 42.2206 8.6856 42.5466L33.4052 67.2663C33.7245 67.5856 33.896 68.0058 33.896 68.4562C33.896 68.9066 33.7212 69.3267 33.4052 69.6461L33.4044 69.6393ZM35.9625 61.3771L33.1658 64.1737L11.7746 42.7825L13.7545 40.796C14.8301 41.8514 16.2452 42.4362 17.7511 42.4362H17.7611C19.2905 42.4329 20.7225 41.8346 21.8015 40.7522C23.1729 39.3741 23.6872 37.4649 23.3578 35.68C23.7006 35.7439 24.0502 35.7809 24.3964 35.7809C25.8552 35.7809 27.3174 35.2262 28.43 34.117C29.5123 33.038 30.1106 31.6027 30.114 30.0733C30.114 29.7204 30.0737 29.3742 30.0131 29.0347C30.3594 29.0986 30.7123 29.1355 31.0653 29.1355C32.5274 29.1355 33.9896 28.5809 35.1022 27.4683C36.1846 26.3893 36.7795 24.954 36.7795 23.4247C36.7795 23.0717 36.7392 22.7255 36.6787 22.3827C37.0249 22.4465 37.3745 22.4835 37.724 22.4835C39.1895 22.4835 40.6517 21.9255 41.7677 20.8096C42.1946 20.3827 42.5206 19.8919 42.7862 19.3709L55.2669 6.8902C56.6652 5.49188 59.0988 5.49188 60.4971 6.8902C61.1963 7.58936 61.5794 8.51706 61.5794 9.50535C61.5794 10.4935 61.1963 11.4213 60.4971 12.1205L44.8102 27.8074C44.4169 28.2007 44.4169 28.8394 44.8102 29.2326C45.0085 29.4309 45.2639 29.5284 45.5228 29.5284C45.7816 29.5284 46.0404 29.4309 46.2354 29.2326L58.1206 17.3474C59.5626 15.9053 61.9088 15.9053 63.3508 17.3474C64.7928 18.7894 64.7928 21.1355 63.3508 22.5776L51.4656 34.4602C51.0723 34.8535 51.0723 35.4921 51.4656 35.8854C51.6639 36.0837 51.9194 36.1812 52.1782 36.1812C52.437 36.1812 52.6958 36.0837 52.8908 35.8854L62.8743 25.9019C64.3163 24.4598 66.6625 24.4598 68.1045 25.9019C69.5465 27.3439 69.5465 29.69 68.1045 31.1321L62.0272 37.2094C62.0239 37.2127 62.0171 37.2127 62.0104 37.2194C62.0003 37.2295 61.997 37.243 61.9869 37.2531L49.859 49.381C47.8052 51.4347 45.5868 53.3608 43.264 55.1019L42.7766 55.4683C41.2741 56.5977 39.8321 57.8213 38.427 59.0817C38.3195 59.1355 38.2153 59.2027 38.1313 59.2968C38.0909 59.3405 38.0741 59.3943 38.0439 59.4414C37.3447 60.08 36.6314 60.7116 35.9625 61.3771ZM41.3406 60.9569C41.0246 60.6409 40.6952 60.3351 40.3725 60.0259C41.5423 59.0007 42.7456 58.0125 43.9859 57.0813L44.4733 56.7149C46.8734 54.9166 49.1657 52.9267 51.2868 50.8057L62.6514 39.441C62.8363 39.6394 63.0145 39.8478 63.2061 40.0394L65.5287 42.362L44.1375 63.7532L41.3406 60.9569ZM74.7995 48.305L50.0798 73.0246C49.4446 73.6599 48.3387 73.6599 47.7034 73.0246L43.9017 69.2229C43.2462 68.5674 43.2462 67.5019 43.9017 66.8464L68.6213 42.1268C69.2768 41.4714 70.3423 41.4714 70.9978 42.1268L74.7995 45.9285C75.1188 46.2478 75.2902 46.668 75.2902 47.1184C75.2902 47.5688 75.1154 47.989 74.7995 48.3083V48.305Z" fill="#985B3C"/>
</svg>
