<svg width="80" height="70" viewBox="0 0 80 70" fill="none" xmlns="http://www.w3.org/2000/svg">
<path d="M23.8181 30.9007C26.5979 30.9007 28.8601 28.6386 28.8601 25.8587C28.8601 23.0789 26.5979 20.8167 23.8181 20.8167C21.0382 20.8167 18.7761 23.0789 18.7761 25.8587C18.7761 28.6453 21.0382 30.9007 23.8181 30.9007ZM23.8181 22.4436C25.7038 22.4436 27.2433 23.9764 27.2433 25.8689C27.2433 27.7546 25.7106 29.2941 23.8181 29.2941C21.9257 29.2941 20.3928 27.7614 20.3928 25.8689C20.3928 23.9731 21.9256 22.4436 23.8181 22.4436ZM55.3477 31.2371C51.9057 31.2371 48.9981 32.7262 47.1998 35.3346C45.2469 33.5631 42.6317 32.5379 39.583 32.5379C36.5376 32.5379 33.9225 33.5531 31.9662 35.3346C30.1679 32.7262 27.2603 31.2371 23.8182 31.2371C18.2149 31.2371 14.1884 35.0993 13.8115 40.8403C13.7611 41.6403 14.0602 42.363 14.6619 42.8873C16.9241 44.8672 20.5207 46.1479 23.8185 46.1479C25.4723 46.1479 27.2504 45.805 28.9143 45.1932C29.0185 45.3311 29.1294 45.4588 29.2672 45.5731C31.8219 47.8117 35.8756 49.247 39.5932 49.247C43.3109 49.247 47.3646 47.8016 49.9193 45.5731C50.047 45.4521 50.1613 45.3243 50.2722 45.1932C51.9327 45.805 53.7142 46.1479 55.368 46.1479C58.6621 46.1479 62.2621 44.8672 64.5246 42.8873C65.1263 42.363 65.4288 41.6302 65.375 40.8403C64.9784 35.0991 60.9575 31.2371 55.3477 31.2371ZM23.8181 44.5413C20.934 44.5413 17.6836 43.3884 15.7307 41.6775C15.5055 41.4792 15.4114 41.2472 15.4282 40.9447C15.7475 36.101 19.119 32.8472 23.8181 32.8472C26.8399 32.8472 29.3609 34.1985 30.8298 36.5481C29.4012 38.3463 28.5071 40.6522 28.3357 43.3447C28.3257 43.4657 28.3458 43.5766 28.3525 43.6875C26.8634 44.2287 25.2802 44.5413 23.8181 44.5413ZM48.8432 44.3665C46.6045 46.3295 42.8802 47.6438 39.5825 47.6438C36.2884 47.6438 32.5606 46.3262 30.3217 44.3665C30.0461 44.1245 29.9184 43.8153 29.9419 43.4455C30.3117 37.8859 34.1839 34.1513 39.5787 34.1513C44.9736 34.1513 48.8557 37.8857 49.2154 43.4455C49.2457 43.8186 49.1154 44.1279 48.8432 44.3665ZM63.445 41.6842C61.4921 43.3951 58.2383 44.548 55.3577 44.548C53.8955 44.548 52.3123 44.2388 50.83 43.6976C50.8401 43.5867 50.8569 43.4724 50.8468 43.3547C50.6653 40.669 49.7712 38.3564 48.3527 36.5582C49.8317 34.2086 52.346 32.8573 55.3644 32.8573C60.0635 32.8573 63.435 36.111 63.7543 40.9548C63.7644 41.2439 63.6669 41.4859 63.445 41.6842ZM55.3475 30.9012C58.1274 30.9012 60.3895 28.6391 60.3895 25.8592C60.3895 23.0794 58.1274 20.8172 55.3475 20.8172C52.5677 20.8172 50.3055 23.0794 50.3055 25.8592C50.3122 28.6458 52.5777 30.9012 55.3475 30.9012ZM55.3475 22.4441C57.2332 22.4441 58.7728 23.9769 58.7728 25.8694C58.7728 27.7551 57.24 29.2946 55.3475 29.2946C53.4618 29.2946 51.9223 27.7619 51.9223 25.8694C51.9324 23.9736 53.4618 22.4441 55.3475 22.4441ZM39.5831 31.9432C42.6823 31.9432 45.1932 29.4222 45.1932 26.3332C45.1932 23.234 42.6722 20.7231 39.5831 20.7231C36.484 20.7231 33.9731 23.2442 33.9731 26.3332C33.9731 29.4222 36.4841 31.9432 39.5831 31.9432ZM39.5831 22.3297C41.7848 22.3297 43.5764 24.1179 43.5764 26.3229C43.5764 28.5246 41.7882 30.3162 39.5831 30.3162C37.3815 30.3162 35.5899 28.528 35.5899 26.3229C35.5899 24.1213 37.3815 22.3297 39.5831 22.3297ZM73.9361 29.7582C73.2739 29.7582 72.6353 29.886 72.0504 30.1112L60.0369 9.30081C61.2235 8.33611 61.9898 6.87394 61.9898 5.23021C61.9898 2.34616 59.6402 0 56.7596 0C54.1513 0 51.9932 1.91935 51.5966 4.42349H27.5697C27.1831 1.91926 25.015 0 22.4067 0C19.5226 0 17.1765 2.3496 17.1765 5.23021C17.1765 6.87394 17.9428 8.33611 19.1294 9.30081L7.11592 30.1077C6.53104 29.8825 5.89237 29.7548 5.23021 29.7548C2.34951 29.7582 0 32.1044 0 34.9884C0 37.8723 2.3496 40.2186 5.23021 40.2186C5.89239 40.2186 6.53103 40.0908 7.11592 39.8656L19.1294 60.6726C17.9428 61.6373 17.1765 63.0994 17.1765 64.7431C17.1765 67.6272 19.5261 69.9734 22.4067 69.9734C25.015 69.9734 27.1731 68.054 27.5697 65.5499H51.5966C51.9832 68.0541 54.1513 69.9734 56.7596 69.9734C59.6437 69.9734 61.9898 67.6238 61.9898 64.7431C61.9898 63.0994 61.2234 61.6373 60.0369 60.6726L72.0504 39.8656C72.6352 40.0908 73.2739 40.2186 73.9361 40.2186C76.8201 40.2186 79.1663 37.869 79.1663 34.9884C79.1663 32.1043 76.8167 29.7582 73.9361 29.7582ZM56.7596 1.62759C58.7562 1.62759 60.373 3.24438 60.373 5.241C60.373 7.23762 58.7562 8.85442 56.7596 8.85442C54.763 8.85442 53.1462 7.23762 53.1462 5.241C53.1462 3.24438 54.763 1.62759 56.7596 1.62759ZM22.4067 1.62759C24.4033 1.62759 26.0201 3.24438 26.0201 5.241C26.0201 7.23762 24.4033 8.85442 22.4067 8.85442C20.4101 8.85442 18.7933 7.23762 18.7933 5.241C18.7933 3.24438 20.4101 1.62759 22.4067 1.62759ZM1.61697 34.9892C1.61697 32.9926 3.23376 31.3758 5.23039 31.3758C7.22701 31.3758 8.8438 32.9926 8.8438 34.9892C8.8438 36.9858 7.22701 38.6026 5.23039 38.6026C3.23712 38.6026 1.61697 36.9858 1.61697 34.9892ZM22.4067 68.3509C20.4101 68.3509 18.7933 66.7341 18.7933 64.7374C18.7933 62.7408 20.4101 61.124 22.4067 61.124C24.4033 61.124 26.0201 62.7408 26.0201 64.7374C26.0201 66.7341 24.4033 68.3509 22.4067 68.3509ZM56.7596 68.3509C54.763 68.3509 53.1462 66.7341 53.1462 64.7374C53.1462 62.7408 54.763 61.124 56.7596 61.124C58.7562 61.124 60.373 62.7408 60.373 64.7374C60.373 66.7341 58.7562 68.3509 56.7596 68.3509ZM58.642 59.8668C58.0571 59.6416 57.4184 59.5139 56.7563 59.5139C54.1479 59.5139 51.9899 61.4332 51.5932 63.9374H27.5698C27.1832 61.4331 25.0151 59.5139 22.4068 59.5139C21.7446 59.5139 21.1059 59.6416 20.5211 59.8668L8.51105 39.0599C9.69759 38.0952 10.464 36.633 10.464 34.9893C10.464 33.3456 9.69757 31.8834 8.51105 30.9187L20.5245 10.1118C21.1094 10.337 21.7481 10.4647 22.4102 10.4647C25.0186 10.4647 27.1766 8.54538 27.5732 6.04123H51.6001C51.9867 8.54547 54.1548 10.4647 56.7631 10.4647C57.4253 10.4647 58.064 10.337 58.6488 10.1118L70.6623 30.9187C69.4758 31.8834 68.7094 33.3456 68.7094 34.9893C68.7094 36.633 69.4758 38.0952 70.6623 39.0599L58.642 59.8668ZM73.9356 38.603C71.939 38.603 70.3222 36.9862 70.3222 34.9896C70.3222 32.9929 71.939 31.3761 73.9356 31.3761C75.9323 31.3761 77.5491 32.9929 77.5491 34.9896C77.5491 36.9862 75.9289 38.603 73.9356 38.603Z" fill="#985B3C"/>
</svg>
