<svg width="94" height="90" viewBox="0 0 94 90" fill="none" xmlns="http://www.w3.org/2000/svg">
<path fill-rule="evenodd" clip-rule="evenodd" d="M34.6955 22.3399L25.3205 21.1954C23.8283 21.0157 22.9846 22.7462 23.8439 23.8438C24.1369 24.2188 24.4885 24.3867 24.9689 24.457L34.2892 25.5937C35.7775 25.7734 36.6251 24.0468 35.7658 22.9453C35.5119 22.6211 35.1369 22.3906 34.6955 22.3399ZM25.5822 18.9805C22.1838 18.5664 19.9845 22.5235 22.09 25.2149C22.6994 25.9922 23.6017 26.5391 24.6525 26.668L28.5119 26.8672V31.75L8.13294 31.7461V26.8516L11.9181 26.6602C12.9689 26.5312 13.8751 25.9844 14.4806 25.2071C16.5861 22.5157 14.3869 18.5587 10.9884 18.9727L3.17204 19.9258L8.37124 12.9844C9.02749 12.1055 9.82434 11.3516 10.9454 11.3516H25.7074C26.8246 11.3516 27.6215 12.1133 28.2816 12.9844L33.5199 19.9375L25.5822 18.9805ZM11.2462 21.1953L1.87124 22.3398C0.39854 22.5194 -0.0193603 24.4023 1.08218 25.2617C1.4064 25.5156 1.83218 25.6484 2.27748 25.5937L11.6525 24.4492C13.1252 24.2695 13.5431 22.3867 12.4415 21.5273C12.1173 21.2734 11.6954 21.1406 11.2462 21.1953ZM21.6212 1.37125C18.6876 -1.56235 13.6524 0.523594 13.6524 4.67205C13.6524 8.82045 18.6876 10.9065 21.6212 7.97285C23.4454 6.14865 23.4454 3.19555 21.6212 1.37125ZM91.8752 22.3403L82.5002 21.1958C81.008 21.0161 80.1643 22.7466 81.0236 23.8442C81.3166 24.2192 81.6682 24.3871 82.1486 24.4574L91.4689 25.5941C92.9572 25.7738 93.8048 24.0472 92.9455 22.9457C92.6955 22.6215 92.3166 22.391 91.8752 22.3403ZM82.7619 18.9809C79.3635 18.5668 77.1642 22.5239 79.2697 25.2153C79.8791 25.9926 80.7814 26.5395 81.8322 26.6684L85.6916 26.8676V31.7504L65.3126 31.7465V26.852L69.0978 26.6606C70.1486 26.5316 71.0548 25.9848 71.6603 25.2075C73.7658 22.5161 71.5666 18.5591 68.1681 18.9731L60.3517 19.9262L65.5509 12.9848C65.922 12.4887 66.3283 12.059 66.7814 11.7621V11.7582C67.176 11.5043 67.6174 11.348 68.1291 11.348H82.8911C84.0083 11.348 84.8052 12.1097 85.4653 12.9808L90.7036 19.9339L82.7619 18.9809ZM68.4299 21.1957L59.0549 22.3402C57.5822 22.5198 57.1643 24.4027 58.2659 25.2621C58.5901 25.516 59.0159 25.6488 59.4612 25.5941L68.8362 24.4496C70.3089 24.2699 70.7268 22.3871 69.6252 21.5277C69.301 21.2738 68.8752 21.141 68.4299 21.1957ZM78.8049 1.37165C75.8713 -1.56195 70.8361 0.523993 70.8361 4.67245C70.8361 8.82085 75.8713 10.9069 78.8049 7.97325C80.6291 6.14905 80.6291 3.19595 78.8049 1.37165ZM51.5589 66.2936C51.5628 70.3014 46.7386 72.4304 43.7737 69.6804V69.6764C40.6565 66.7819 42.7659 61.5826 46.9807 61.6334C48.2073 61.6491 49.469 62.1647 50.3362 63.1257H50.3323C51.1487 64.0202 51.5589 65.1881 51.5589 66.2936ZM56.3909 61.2898H60.5745V54.5086L55.1097 54.2078C53.8792 54.0593 52.8206 53.4187 52.1097 52.5086C50.5706 50.5398 50.9222 47.6727 52.8871 46.1336C53.7972 45.4226 54.973 45.0555 56.1996 45.2039L67.5666 46.5906L60.0393 35.6376C59.1565 34.3524 57.9963 33.3993 56.4065 33.3993L37.4455 33.3954C35.8557 33.3954 34.6994 34.3446 33.8166 35.6337L26.3322 46.5717L37.5512 45.2045C40.0356 44.9037 42.2973 46.6967 42.5746 49.2279C42.7152 50.4427 42.348 51.6068 41.6449 52.5091C40.9339 53.4192 39.8754 54.0599 38.6449 54.2083L33.2777 54.4973V61.2903H37.4457L36.1723 59.1223L39.7504 55.5364L42.3871 57.0794L43.6019 56.3919L43.641 56.4623L44.3831 53.6146L49.4495 53.6106L50.2308 56.5872L51.4378 57.0872L54.094 55.5325L57.676 59.1106L56.3909 61.2898ZM50.0862 73.8918C50.887 73.5597 51.3323 73.0949 51.969 73.466L53.7737 74.5207L55.176 73.1184L54.1174 71.3137C53.7424 70.6731 54.2151 70.2239 54.5432 69.4309C55.2698 67.6731 54.4729 68.0793 57.5979 67.2629V65.2824C54.4846 64.4738 55.2698 64.88 54.5393 63.1183C54.2073 62.3175 53.7385 61.8683 54.1135 61.2316L55.1682 59.4269L53.7659 58.0246L52.0237 59.048C51.3284 59.4894 50.9182 59.005 50.0784 58.6574C48.3167 57.9308 48.7268 58.7277 47.9104 55.6027L45.9299 55.6066C44.9573 59.3527 45.5862 57.5675 42.8752 59.0988C42.5784 59.2667 42.1995 59.2784 41.8831 59.0909L40.0784 58.0363L38.6761 59.4385L39.6995 61.1808C40.1409 61.8761 39.6565 62.2862 39.3127 63.126C38.5862 64.8838 39.383 64.4776 36.258 65.294L36.2619 67.2745C40.008 68.2472 38.2228 67.6183 39.7541 70.3292C39.9221 70.6261 39.9338 71.005 39.7463 71.3214L38.6916 73.1261L40.0939 74.5284L41.8361 73.505C42.5314 73.0636 42.9416 73.548 43.7814 73.8918C45.5392 74.6183 45.133 73.8214 45.9494 76.9465L47.9299 76.9426C48.7346 73.8332 48.3246 74.6184 50.0862 73.8918ZM68.0002 48.6498C69.3869 48.8177 70.3518 50.0521 70.176 51.5131C70.0081 52.8842 68.7502 53.8647 67.3791 53.6967L55.3911 52.2358C54.6607 52.1303 54.1099 51.8451 53.6763 51.2865C52.3286 49.5677 53.6763 46.9037 55.9654 47.1849L68.0002 48.6498ZM37.7892 47.185C38.4807 47.099 39.1369 47.3021 39.6447 47.7006C41.2736 48.974 40.8439 51.8803 38.3635 52.2358L26.3755 53.6967C25.0005 53.8646 23.7466 52.8842 23.5786 51.5131C23.3989 50.0561 24.3677 48.8217 25.7544 48.6498L37.7892 47.185ZM51.4732 20.54C48.9615 18.0283 44.8873 18.0283 42.3755 20.54C39.8637 23.0517 39.8638 27.1259 42.3755 29.6377C44.8872 32.1495 48.9614 32.1494 51.4732 29.6377C53.9849 27.1221 53.9849 23.0518 51.4732 20.54ZM37.6372 81.431C37.6802 81.5481 37.6216 81.6888 37.4966 81.7356L16.5866 89.4114C16.489 89.4466 16.3913 89.4232 16.3288 89.3529L14.5085 84.4114C14.4655 84.2943 14.5241 84.1536 14.6491 84.1068L35.5591 76.431C35.6568 76.3958 35.7545 76.4192 35.817 76.4896L37.6372 81.431ZM23.0392 59.013C18.3986 55.6224 17.1564 55.6732 12.8282 49.5755C12.2696 48.7864 11.8165 47.763 11.3594 46.7317C10.586 44.9778 9.79694 43.1965 8.95714 43.5442C8.1837 43.8645 7.90634 45.2044 7.89464 46.8489C7.8712 49.763 8.79308 53.5481 9.40634 55.0989C10.7774 58.5481 14.1133 61.3841 16.4375 63.3645C17.3477 64.1379 18.1133 64.7903 18.6055 65.3372C18.9727 65.7473 18.9415 66.3763 18.5313 66.7434C18.1212 67.1105 17.4922 67.0793 17.1251 66.6691C16.715 66.2082 16.0001 65.6027 15.1524 64.88C12.6719 62.7706 9.11722 59.7472 7.55862 55.8292C6.96096 54.3253 6.03912 50.7198 5.91802 47.6104C5.62505 46.2432 5.38286 44.501 5.22661 42.8487C5.05864 41.0675 4.98833 39.3839 5.06255 38.3799C5.19146 36.5518 5.23833 35.0401 5.01568 33.9268C4.8438 33.0675 4.50396 32.4698 3.87508 32.1768C1.17978 31.4581 0.242276 34.8252 0.0430759 38.8448C-0.187394 43.4542 0.566516 48.9038 0.894636 51.0718C1.29698 53.7359 2.03134 56.3687 2.85164 58.6695C3.89074 61.5797 5.05864 63.9234 5.88684 65.1148C7.65634 67.6187 9.46104 69.8296 11.4454 72.2359C13.8399 75.1421 15.9649 77.7164 16.6134 79.3257L17.1291 81.0796L32.1331 75.5718C31.6057 70.0288 30.8947 65.478 23.0392 59.013ZM70.7112 59.013C62.8596 65.4739 62.1448 70.025 61.6214 75.568L76.6254 81.0758L77.1411 79.3219C77.7895 77.7125 79.9106 75.1382 82.3091 72.232C84.2935 69.8258 86.0982 67.6149 87.8677 65.111C88.6958 63.9196 89.8638 61.5758 90.9029 58.6657C91.7271 56.3649 92.4576 53.7321 92.8599 51.068C93.188 48.9 93.9419 43.4508 93.7114 38.841C93.5083 34.8176 92.5747 31.4543 89.8794 32.173C89.2544 32.4659 88.9107 33.0636 88.7388 33.923C88.5162 35.0363 88.563 36.5519 88.6919 38.3761C88.7623 39.3839 88.6959 41.0636 88.5279 42.8449C88.3716 44.4972 88.1294 46.2394 87.8326 47.6066C87.7115 50.716 86.7896 54.3214 86.192 55.8254C84.6334 59.7434 81.0787 62.7668 78.5982 64.8762C77.7505 65.5988 77.0357 66.2043 76.6255 66.6653C76.2583 67.0754 75.6294 67.1067 75.2193 66.7395C74.8091 66.3723 74.7779 65.7434 75.1451 65.3333C75.6372 64.7825 76.4029 64.1341 77.3131 63.3606C79.6373 61.384 82.9733 58.5442 84.3443 55.095C84.9615 53.5442 85.8795 49.7591 85.856 46.845C85.8442 45.2005 85.5669 43.8606 84.7935 43.5403C83.9536 43.1926 83.1646 44.9739 82.3912 46.7278C81.9341 47.759 81.4849 48.7825 80.9224 49.5716C76.5943 55.6732 75.348 55.6224 70.7112 59.013ZM77.0354 83.349L79.1018 84.1068C79.2268 84.1536 79.2854 84.2904 79.2425 84.4115L77.4691 89.2709C77.4339 89.3685 77.3402 89.4232 77.2581 89.4271L56.2541 81.7318C56.1291 81.6849 56.0705 81.5482 56.1135 81.4271L57.8869 76.5677C57.9221 76.4701 58.0158 76.4154 58.0979 76.4115C58.2463 76.4076 75.2534 82.7279 77.0354 83.349Z" fill="white"/>
</svg>
