<svg width="90" height="73" viewBox="0 0 90 73" fill="none" xmlns="http://www.w3.org/2000/svg">
<path d="M89.8671 65.3359L77.0853 12.9181C76.9983 9.33583 74.0629 6.43822 70.4503 6.43822H67.6208C67.0874 2.80677 63.9591 0 60.1839 0C56.4087 0 53.2804 2.80677 52.747 6.43822H46.2292C45.6959 2.80677 42.5676 0 38.7923 0C35.0172 0 31.8888 2.80677 31.3554 6.43822H24.3459C23.8126 2.80677 20.6843 0 16.909 0C13.1338 0 10.0055 2.80677 9.47208 6.43822H6.64255C2.98089 6.43822 0 9.41901 0 13.0808V65.5964C0 69.2581 2.98079 72.2389 6.64255 72.2389H83.2623C85.392 72.2389 87.5898 71.1836 88.8797 69.5457C89.867 68.2784 90.2189 66.7885 89.8671 65.3359ZM60.188 2.1748C62.7641 2.1748 64.924 4.00563 65.4271 6.44558H54.9492C55.4523 4.00573 57.6119 2.1748 60.188 2.1748ZM38.7963 2.1748C41.3724 2.1748 43.5323 4.00563 44.0355 6.44558H33.5575C34.0606 4.00573 36.2202 2.1748 38.7963 2.1748ZM16.9088 2.1748C19.4849 2.1748 21.6448 4.00563 22.148 6.44558H11.6623C12.1654 4.00573 14.3252 2.1748 16.9088 2.1748ZM6.64585 8.6168H9.47538C10.0087 12.2483 13.137 15.055 16.9123 15.055C17.5138 15.055 17.998 14.5708 17.998 13.9694C17.998 13.3679 17.5138 12.8837 16.9123 12.8837C14.3362 12.8837 12.1763 11.0529 11.6731 8.61293H31.3585C31.8919 12.2444 35.0202 15.0512 38.7954 15.0512C39.3969 15.0512 39.8811 14.567 39.8811 13.9655C39.8811 13.364 39.3969 12.8798 38.7954 12.8798C36.2193 12.8798 34.0594 11.049 33.5563 8.60906L52.7497 8.61662C53.283 12.2481 56.4113 15.0548 60.1866 15.0548C60.7881 15.0548 61.2723 14.5707 61.2723 13.9692C61.2723 13.3677 60.7881 12.8835 60.1866 12.8835C57.6105 12.8835 55.4506 11.0527 54.9474 8.61275H70.4532C72.9121 8.61275 74.9169 10.6176 74.9169 13.0764V18.3534L2.18236 18.3571V13.0802C2.18236 10.6214 4.17568 8.6168 6.64585 8.6168ZM70.4422 70.06H6.64585C4.18701 70.06 2.18216 68.0551 2.18216 65.5963V20.5247H74.9167V65.5924C74.9167 68.055 72.9124 70.06 70.4422 70.06ZM87.1662 68.1988C86.2962 69.3109 84.7264 70.06 83.2625 70.06H75.3489C76.4232 68.8797 77.0928 67.3213 77.0928 65.5963L77.0966 22.1244L87.7604 65.8568C87.9988 66.863 87.5748 67.6881 87.1662 68.1988ZM16.2619 24.4965H10.1528C8.53372 24.4965 7.21739 25.8129 7.21739 27.4319V33.541C7.21739 35.1601 8.53381 36.4764 10.1528 36.4764H16.2619C17.881 36.4764 19.1973 35.16 19.1973 33.541V27.4319C19.1973 25.8128 17.8771 24.4965 16.2619 24.4965ZM17.026 33.541C17.026 33.9685 16.6856 34.3052 16.2619 34.3052H10.1528C9.72531 34.3052 9.38865 33.9647 9.38865 33.541V27.4319C9.38865 27.0044 9.72909 26.6678 10.1528 26.6678H16.2619C16.6894 26.6678 17.026 27.0082 17.026 27.4319V33.541ZM33.3521 24.4965H27.2429C25.6239 24.4965 24.3075 25.8129 24.3075 27.4319V33.541C24.3075 35.1601 25.624 36.4764 27.2429 36.4764H33.3521C34.9711 36.4764 36.2874 35.16 36.2874 33.541V27.4319C36.2874 25.8128 34.971 24.4965 33.3521 24.4965ZM34.12 33.541C34.12 33.9685 33.7795 34.3052 33.3559 34.3052H27.2467C26.8192 34.3052 26.4826 33.9647 26.4826 33.541V27.4319C26.4826 27.0044 26.823 26.6678 27.2467 26.6678H33.3559C33.7833 26.6678 34.12 27.0082 34.12 27.4319V33.541ZM61.4169 36.4764H67.526C69.1451 36.4764 70.4614 35.16 70.4614 33.541V27.4319C70.4614 25.8128 69.145 24.4965 67.526 24.4965H61.4169C59.7978 24.4965 58.4815 25.8129 58.4815 27.4319V33.541C58.4853 35.1601 59.8017 36.4764 61.4169 36.4764ZM60.6528 27.4319C60.6528 27.0044 60.9932 26.6678 61.4169 26.6678H67.526C67.9535 26.6678 68.2901 27.0082 68.2901 27.4319V33.541C68.2901 33.9685 67.9497 34.3052 67.526 34.3052H61.4169C60.9894 34.3052 60.6528 33.9647 60.6528 33.541V27.4319ZM50.4353 24.4965H44.3261C42.7071 24.4965 41.3908 25.8129 41.3908 27.4319V33.541C41.3908 35.1601 42.7072 36.4764 44.3261 36.4764H50.4353C52.0543 36.4764 53.3707 35.16 53.3707 33.541V27.4319C53.3782 25.8128 52.0618 24.4965 50.4353 24.4965ZM51.1994 33.541C51.1994 33.9685 50.859 34.3052 50.4353 34.3052H44.3261C43.8987 34.3052 43.562 33.9647 43.562 33.541V27.4319C43.562 27.0044 43.9025 26.6678 44.3261 26.6678H50.4353C50.8628 26.6678 51.1994 27.0082 51.1994 27.4319V33.541ZM16.262 39.3022H10.1528C8.53374 39.3022 7.21742 40.6186 7.21742 42.2375V48.3467C7.21742 49.9658 8.53384 51.2821 10.1528 51.2821H16.262C17.881 51.2821 19.1973 49.9657 19.1973 48.3467V42.2375C19.1973 40.6185 17.8771 39.3022 16.262 39.3022ZM17.0261 48.3467C17.0261 48.7742 16.6856 49.1108 16.262 49.1108H10.1528C9.72534 49.1108 9.38868 48.7704 9.38868 48.3467V42.2375C9.38868 41.8101 9.72912 41.4734 10.1528 41.4734H16.262C16.6894 41.4734 17.0261 41.8139 17.0261 42.2375V48.3467ZM33.3521 39.3022H27.2429C25.6239 39.3022 24.3076 40.6186 24.3076 42.2375V48.3467C24.3076 49.9658 25.624 51.2821 27.2429 51.2821H33.3521C34.9712 51.2821 36.2875 49.9657 36.2875 48.3467V42.2375C36.2875 40.6185 34.9711 39.3022 33.3521 39.3022ZM34.12 48.3467C34.12 48.7742 33.7796 49.1108 33.3559 49.1108H27.2467C26.8193 49.1108 26.4826 48.7704 26.4826 48.3467V42.2375C26.4826 41.8101 26.8231 41.4734 27.2467 41.4734H33.3559C33.7833 41.4734 34.12 41.8139 34.12 42.2375V48.3467ZM70.4607 42.2375C70.4607 40.6185 69.1442 39.3022 67.5253 39.3022H61.4161C59.7971 39.3022 58.4807 40.6186 58.4807 42.2375V48.3467C58.4807 49.9658 59.7972 51.2821 61.4161 51.2821H67.5253C69.1443 51.2821 70.4607 49.9657 70.4607 48.3467V42.2375ZM68.2931 48.3467C68.2931 48.7742 67.9527 49.1108 67.529 49.1108H61.4198C60.9924 49.1108 60.6557 48.7704 60.6557 48.3467V42.2375C60.6557 41.8101 60.9962 41.4734 61.4198 41.4734H67.529C67.9565 41.4734 68.2931 41.8139 68.2931 42.2375V48.3467ZM50.4351 39.3022H44.3259C42.7069 39.3022 41.3906 40.6186 41.3906 42.2375V48.3467C41.3906 49.9658 42.707 51.2821 44.3259 51.2821H50.4351C52.0541 51.2821 53.3705 49.9657 53.3705 48.3467V42.2375C53.378 40.6185 52.0616 39.3022 50.4351 39.3022ZM51.1992 48.3467C51.1992 48.7742 50.8588 49.1108 50.4351 49.1108H44.3259C43.8985 49.1108 43.5618 48.7704 43.5618 48.3467V42.2375C43.5618 41.8101 43.9023 41.4734 44.3259 41.4734H50.4351C50.8626 41.4734 51.1992 41.8139 51.1992 42.2375V48.3467ZM16.2618 54.1078H10.1526C8.53354 54.1078 7.21721 55.4243 7.21721 57.0432V63.1524C7.21721 64.7714 8.53364 66.0878 10.1526 66.0878H16.2618C17.8808 66.0878 19.1971 64.7713 19.1971 63.1524V57.0432C19.1971 55.4279 17.8769 54.1078 16.2618 54.1078ZM17.0259 63.1563C17.0259 63.5837 16.6854 63.9204 16.2618 63.9204H10.1526C9.72513 63.9204 9.38847 63.5799 9.38847 63.1563V57.0471C9.38847 56.6196 9.72892 56.283 10.1526 56.283H16.2618C16.6892 56.283 17.0259 56.6234 17.0259 57.0471V63.1563ZM33.3519 54.1078H27.2427C25.6237 54.1078 24.3074 55.4243 24.3074 57.0432V63.1524C24.3074 64.7714 25.6238 66.0878 27.2427 66.0878H33.3519C34.9709 66.0878 36.2873 64.7713 36.2873 63.1524V57.0432C36.2873 55.4279 34.9709 54.1078 33.3519 54.1078ZM34.1198 63.1563C34.1198 63.5837 33.7794 63.9204 33.3557 63.9204H27.2465C26.8191 63.9204 26.4824 63.5799 26.4824 63.1563V57.0471C26.4824 56.6196 26.8229 56.283 27.2465 56.283H33.3557C33.7831 56.283 34.1198 56.6234 34.1198 57.0471V63.1563ZM50.4352 54.1078H44.326C42.707 54.1078 41.3906 55.4243 41.3906 57.0432V63.1524C41.3906 64.7714 42.7071 66.0878 44.326 66.0878H50.4352C52.0542 66.0878 53.3706 64.7713 53.3706 63.1524V57.0432C53.3781 55.4279 52.0617 54.1078 50.4352 54.1078ZM51.1993 63.1563C51.1993 63.5837 50.8589 63.9204 50.4352 63.9204H44.326C43.8986 63.9204 43.5619 63.5799 43.5619 63.1563V57.0471C43.5619 56.6196 43.9024 56.283 44.326 56.283H50.4352C50.8626 56.283 51.1993 56.6234 51.1993 57.0471V63.1563Z" fill="#985B3C"/>
</svg>
