<svg width="83" height="96" viewBox="0 0 83 96" fill="none" xmlns="http://www.w3.org/2000/svg">
<path d="M24.2244 72.352C24.2244 69.114 21.5744 66.464 18.3314 66.464H15.4944C14.8684 66.464 14.3594 66.972 14.3594 67.593V84.518H9.92737V53.944C9.92737 52.943 8.70737 52.429 7.99537 53.141L6.15438 54.982C4.50538 56.631 4.00237 59.098 4.83237 61.266C5.13237 62.037 4.97137 62.813 4.44737 63.412C3.32837 64.686 1.23037 64.349 0.631375 62.705C-0.738625 58.964 0.149375 54.714 3.01837 51.845L7.84137 47.022C8.80437 46.059 9.91838 45.598 11.2774 45.598H20.4354C22.3464 45.598 24.0534 44.891 25.4024 43.543L30.6694 38.276C31.3764 37.569 32.2214 37.505 32.9124 37.81C33.4694 38.056 33.7264 38.356 34.0634 38.79C34.5884 39.577 34.6304 40.588 33.8064 41.413L22.0844 53.13C21.8754 53.339 21.7414 53.622 21.7414 53.944V61.834H21.7464C21.7464 62.273 22.0034 62.69 22.4264 62.872C26.1844 64.499 28.6564 68.209 28.6564 72.352V74.247H24.2244V72.352ZM15.8314 43.335C17.7904 43.335 19.3804 41.745 19.3804 39.786C19.3804 37.827 17.7904 36.237 15.8314 36.237C13.8724 36.237 12.2824 37.827 12.2824 39.786C12.2824 41.745 13.8724 43.335 15.8314 43.335ZM77.6814 6.723H75.4174V12.697C76.2634 12.858 77.0444 13.275 77.6814 13.864V6.724V6.723ZM55.1624 23.793C57.1214 23.793 58.7114 22.203 58.7114 20.244C58.7114 18.285 57.1214 16.695 55.1624 16.695C53.2034 16.695 51.6134 18.285 51.6134 20.244C51.6134 22.203 53.2034 23.793 55.1624 23.793ZM4.55337 95.17H21.9544V86.782H4.55337V95.17ZM63.5554 95.17H80.9514V56.968H63.5554V95.17ZM24.2244 95.17H41.6204V76.511H24.2244V95.17ZM81.2674 1.654L82.2044 0H75.4174V4.453H82.2044L81.2574 2.783C81.0484 2.419 81.0634 1.991 81.2674 1.654ZM43.8904 95.17H61.2864V67.24H43.8904V95.17ZM63.5564 54.704H67.9884V52.809C67.9884 48.666 65.5204 44.957 61.7634 43.33C61.3354 43.143 61.0784 42.731 61.0784 42.292H61.0734V34.402C61.0734 34.081 61.2074 33.797 61.4164 33.588L76.3394 18.665C78.3144 16.69 75.1774 13.559 73.2024 15.534L64.7344 24.002C63.3854 25.351 61.6834 26.057 59.7724 26.057H50.6144C49.2494 26.057 48.1364 26.517 47.1724 27.481L36.3544 38.299C36.9914 39.782 36.8734 41.548 35.4074 43.015L35.1824 43.24C36.0654 43.877 37.0714 43.856 37.8854 43.042L47.3274 33.6C48.0394 32.888 49.2594 33.402 49.2594 34.403V64.977H53.6964V48.052C53.6964 47.426 54.1994 46.923 54.8254 46.923H57.6674C60.9054 46.923 63.5554 49.573 63.5554 52.811V54.706L63.5564 54.704Z" fill="white"/>
</svg>
