<svg width="93" height="81" viewBox="0 0 93 81" fill="none" xmlns="http://www.w3.org/2000/svg">
<path d="M46.45 54.132C44.593 54.132 43.083 52.623 43.083 50.765C43.083 48.907 44.592 47.398 46.45 47.398C48.308 47.398 49.817 48.907 49.817 50.765C49.817 52.623 48.313 54.132 46.45 54.132ZM46.45 21.85C34.118 21.85 24.119 31.849 24.119 44.181H68.787C68.787 31.849 58.788 21.85 46.45 21.85ZM46.45 19.179C51.749 19.179 56.042 14.886 56.042 9.587C56.042 4.288 51.749 0 46.45 0C41.151 0 36.863 4.293 36.863 9.587C36.863 14.881 41.156 19.179 46.45 19.179ZM45.321 56.283V59.602H47.585V56.283C47.221 56.358 46.841 56.395 46.45 56.395C46.065 56.395 45.685 56.358 45.321 56.283ZM52.087 50.764C52.087 51.149 52.044 51.529 51.969 51.899H79.578V59.601H81.842V50.764C81.842 50.138 81.339 49.629 80.713 49.629H51.969C52.044 49.998 52.087 50.373 52.087 50.764ZM68.514 61.865V80.77H92.906V61.865H68.514ZM34.257 80.77H58.649V61.865H34.257V80.77ZM60.913 72.452H66.25V70.182H60.913V72.452ZM13.328 51.898H40.932C40.857 51.529 40.82 51.149 40.82 50.763C40.82 50.372 40.857 49.998 40.932 49.628H12.193C11.567 49.628 11.064 50.136 11.064 50.763V59.6H13.328V51.898ZM0 80.77H24.387V61.865H0V80.77ZM26.656 72.452H31.993V70.182H26.656V72.452Z" fill="white"/>
</svg>
