<svg width="82" height="82" viewBox="0 0 82 82" fill="none" xmlns="http://www.w3.org/2000/svg">
<path fill-rule="evenodd" clip-rule="evenodd" d="M32.2727 23.6335H33.6373C34.1684 23.6335 34.6087 24.0167 34.6962 24.5208L36.3835 31.667C36.76 31.7981 37.1297 31.9427 37.4894 32.0906C37.8457 32.2385 38.2088 32.3998 38.5718 32.578L41.1432 30.988C40.3836 29.0687 39.9667 26.9814 39.9667 24.7931C39.9667 20.1411 41.8524 15.9291 44.9012 12.8803C47.95 9.83157 52.1617 7.94587 56.814 7.94587C61.4663 7.94587 65.678 9.83157 68.7268 12.8803C71.7755 15.9291 73.6612 20.1408 73.6612 24.7931C73.6612 29.4454 71.7755 33.6571 68.7268 36.7059C65.678 39.7546 61.4663 41.6403 56.814 41.6403C54.6257 41.6403 52.535 41.2235 50.6191 40.4639L49.0291 43.0353C49.2039 43.4017 49.3686 43.7613 49.5165 44.121C49.6644 44.4806 49.8056 44.8504 49.94 45.2269L57.14 46.9244C57.661 47.0454 58.0072 47.5295 57.9669 48.0505V49.3379C60.0443 48.4202 62.3433 47.9127 64.7601 47.9127C69.4122 47.9127 73.6242 49.7984 76.6729 52.8472C79.7217 55.8959 81.6074 60.1076 81.6074 64.7599C81.6074 69.4122 79.7217 73.624 76.6729 76.6727C73.6242 79.7215 69.4124 81.6072 64.7601 81.6072C60.1078 81.6072 55.8961 79.7215 52.8474 76.6727C51.681 75.5063 50.6827 74.1685 49.8995 72.703L46.1953 76.4072C45.8121 76.7904 45.2138 76.824 44.7902 76.508L38.5751 72.6661C38.2087 72.8408 37.849 73.0056 37.4894 73.1535C37.1297 73.3014 36.7633 73.4425 36.3869 73.577L34.6894 80.777C34.5684 81.298 34.0844 81.6442 33.5634 81.6039L24.3328 81.6005C23.8252 81.6005 23.3983 81.2476 23.2874 80.7703H23.2841L21.5865 73.5703C21.2067 73.4358 20.8403 73.2946 20.4806 73.1467C20.1243 72.9988 19.7613 72.8375 19.3983 72.6627L13.1025 76.5551C12.6723 76.8206 12.1244 76.7467 11.7815 76.4005L11.7781 76.4038L5.20001 69.8257C4.81682 69.4425 4.78321 68.8442 5.09917 68.4207L8.94114 62.2022C8.76635 61.8358 8.60165 61.4762 8.45374 61.1165C8.30584 60.7569 8.16467 60.3905 8.03021 60.014L0.830225 58.3165C0.305853 58.1955 -0.0369878 57.7115 0.00333528 57.1905V47.9668C0.00333528 47.4592 0.356278 47.0323 0.833581 46.9214L8.03357 45.2239C8.16802 44.8441 8.3092 44.4777 8.4571 44.118C8.605 43.7617 8.76635 43.3987 8.9445 43.0357L5.0521 36.7399C4.78656 36.3096 4.86387 35.7618 5.20673 35.4188L5.20337 35.4155L8.90757 31.7079C7.44205 30.9214 6.10422 29.9264 4.93446 28.76C1.8857 25.7113 0 21.4995 0 16.8472C0 12.1949 1.8857 7.98322 4.93446 4.93446C7.98321 1.8857 12.1949 0 16.8472 0C21.4995 0 25.7113 1.8857 28.76 4.93446C31.8088 7.98322 33.6945 12.1949 33.6945 16.8472C33.6945 19.2607 33.1869 21.5562 32.2727 23.6335ZM42.0677 32.9347L39.1938 34.7128C38.8846 34.9044 38.488 34.9313 38.1417 34.7565C37.6812 34.5178 37.1871 34.2926 36.6661 34.0741C36.1787 33.8725 35.6913 33.6909 35.2073 33.533C34.8308 33.4355 34.5216 33.1397 34.4308 32.7363L32.7906 25.7885H31.1334C30.4578 26.8674 29.6612 27.8624 28.7637 28.7599C27.3015 30.222 25.5738 31.4153 23.6578 32.2624L23.5469 32.7363H23.5435C23.4595 33.0893 23.2007 33.3951 22.8275 33.5128C22.3233 33.6741 21.8158 33.8624 21.3082 34.0708C20.7973 34.2825 20.3167 34.5044 19.8629 34.7363C19.5335 34.9178 19.12 34.9212 18.7805 34.7094L17.1267 33.6876C17.036 33.6909 16.9419 33.6909 16.8511 33.6909C14.7973 33.6909 12.8276 33.3245 11.0091 32.6489L7.32509 36.3329L11.0797 42.4102C11.2713 42.7195 11.2982 43.1161 11.1234 43.4623C10.8848 43.9229 10.6595 44.417 10.4444 44.9379C10.2427 45.4253 10.0612 45.9127 9.90325 46.3967C9.80577 46.7732 9.50997 47.0825 9.10661 47.1766L2.1554 48.8169V56.4168L9.10661 58.0571V58.0605C9.46291 58.1445 9.76544 58.4067 9.88308 58.7764C10.0444 59.2806 10.2327 59.7882 10.4444 60.2957C10.6562 60.8066 10.878 61.2873 11.11 61.7411C11.2915 62.0705 11.2948 62.484 11.0831 62.8234L7.32509 68.9007L12.7032 74.2822L18.7805 70.5276C19.0898 70.336 19.4864 70.3091 19.8326 70.4839C20.2932 70.7226 20.7873 70.9478 21.3082 71.1663C21.7956 71.3679 22.283 71.5494 22.7704 71.7074C23.1435 71.8049 23.4561 72.1007 23.5469 72.5041L25.1872 79.4553H32.7871L34.4274 72.5041H34.4308C34.5148 72.1511 34.777 71.8453 35.1467 71.7276C35.6509 71.5663 36.1585 71.378 36.6627 71.1696C37.1736 70.9579 37.6542 70.736 38.108 70.5041C38.4375 70.3226 38.8475 70.3192 39.1904 70.531L45.2677 74.2889L48.9516 70.605C48.2794 68.7831 47.9097 66.8168 47.9097 64.7629C47.9097 64.6722 47.9097 64.5781 47.913 64.4873L46.8912 62.8335C46.6996 62.5243 46.6727 62.1276 46.8475 61.7814C47.0861 61.3209 47.3114 60.8267 47.5265 60.3058C47.7282 59.8184 47.9097 59.331 48.0677 58.8436C48.1651 58.4705 48.4609 58.1579 48.8643 58.0672L49.3382 57.9562C50.1853 56.0402 51.3786 54.3125 52.8407 52.8504C53.7382 51.9529 54.7365 51.1562 55.8155 50.4773V48.8235L48.8643 47.1832V47.1798C48.5113 47.0958 48.2054 46.8336 48.0878 46.4639C47.9265 45.9597 47.7382 45.4521 47.5265 44.9446C47.3147 44.4336 47.0929 43.953 46.8609 43.4992C46.6794 43.1698 46.6761 42.7563 46.8878 42.4168L48.6626 39.5429C47.2777 38.7766 46.0072 37.8186 44.8979 36.706C43.792 35.59 42.8342 34.3229 42.0677 32.9347ZM67.2073 14.3969C64.5485 11.7381 60.8745 10.091 56.8176 10.091C52.7607 10.091 49.0865 11.7347 46.4279 14.3969C43.7691 17.0557 42.122 20.7296 42.122 24.7866C42.122 28.8435 43.7658 32.5177 46.4279 35.1763C49.0867 37.835 52.7607 39.4821 56.8176 39.4821C60.8745 39.4821 64.5487 37.8384 67.2073 35.1763C69.8661 32.5175 71.5131 28.8435 71.5131 24.7866C71.5098 20.7295 69.8661 17.0555 67.2073 14.3969ZM63.3216 21.0725C63.3216 19.5397 62.5586 18.1649 61.325 17.1868C60.404 16.454 59.2141 15.9465 57.8931 15.7616V13.4289C57.8931 12.8339 57.4124 12.3533 56.8174 12.3533C56.2225 12.3533 55.7418 12.8339 55.7418 13.4289V15.7616C54.4208 15.9431 53.2309 16.4541 52.3099 17.1868C51.0762 18.1649 50.3132 19.5397 50.3132 21.0725C50.3132 22.6052 51.0763 23.98 52.3099 24.9615C53.4763 25.8859 55.0695 26.4573 56.8174 26.4573C58.0678 26.4573 59.1905 26.8506 59.9905 27.4825C60.7199 28.064 61.1737 28.8438 61.1737 29.6875C61.1737 30.5312 60.7199 31.3144 59.9905 31.8926C59.1905 32.5279 58.0712 32.9178 56.8174 32.9178C55.567 32.9178 54.4443 32.5245 53.6443 31.8926C52.9149 31.3111 52.4611 30.5313 52.4611 29.6875C52.4611 29.0926 51.9805 28.6119 51.3855 28.6119C50.7906 28.6119 50.3099 29.0926 50.3099 29.6875C50.3099 31.2203 51.0729 32.5951 52.3065 33.5732C53.2275 34.306 54.4174 34.8136 55.7384 34.9984V36.1446C55.7384 36.7395 56.2191 37.2202 56.8141 37.2202C57.409 37.2202 57.8897 36.7395 57.8897 36.1446V34.9984C59.2107 34.8169 60.4006 34.306 61.3216 33.5732C62.5552 32.5951 63.3183 31.2203 63.3183 29.6875C63.3183 28.1548 62.5552 26.78 61.3216 25.7985C60.1552 24.8742 58.5587 24.3027 56.8141 24.3027C55.5637 24.3027 54.441 23.9094 53.641 23.2775C52.9116 22.696 52.4578 21.9162 52.4578 21.0725C52.4578 20.2288 52.9082 19.4456 53.641 18.8674C54.441 18.2321 55.5603 17.8422 56.8141 17.8422C58.0645 17.8422 59.1872 18.2355 59.9872 18.8674C60.7166 19.4489 61.1704 20.2288 61.1704 21.0725C61.1704 21.6674 61.651 22.1481 62.246 22.1481C62.8409 22.1481 63.3216 21.6674 63.3216 21.0725ZM27.2408 6.45427C24.582 3.7955 20.908 2.14841 16.8511 2.14841C12.794 2.14841 9.12001 3.79214 6.4614 6.45427C3.80262 9.11305 2.15554 12.787 2.15554 16.844C2.15554 20.9009 3.79927 24.5751 6.4614 27.2337C9.12018 29.8924 12.7942 31.5395 16.8511 31.5395C20.9082 31.5395 24.5822 29.8958 27.2408 27.2337C29.8996 24.5749 31.5466 20.9009 31.5466 16.844C31.5433 12.7869 29.8996 9.11288 27.2408 6.45427ZM28.9853 38.5312C25.0962 38.5312 21.5735 40.1076 19.0258 42.6589C16.478 45.2068 14.8981 48.7295 14.8981 52.6184C14.8981 56.5072 16.4745 60.0301 19.0258 62.5778C21.5737 65.129 25.0964 66.7055 28.9853 66.7055C32.8741 66.7055 36.397 65.1291 38.9447 62.5778C41.4959 60.0299 43.0725 56.5072 43.0725 52.6184C43.0725 48.7295 41.496 45.2066 38.9447 42.6589C36.3969 40.1077 32.8741 38.5312 28.9853 38.5312ZM37.4256 44.1782C35.2643 42.0169 32.2827 40.6824 28.9853 40.6824C25.6912 40.6824 22.7063 42.0169 20.545 44.1782C18.3836 46.3395 17.0492 49.3211 17.0492 52.6185C17.0492 55.9126 18.3836 58.8975 20.545 61.0588C22.7063 63.2202 25.6878 64.5546 28.9853 64.5546C32.2794 64.5546 35.2643 63.2202 37.4256 61.0588C39.5869 58.8975 40.9214 55.916 40.9214 52.6185C40.9214 49.3211 39.5836 46.3395 37.4256 44.1782ZM15.7719 8.6051V16.8437C15.7719 17.2706 16.0207 17.637 16.377 17.8118L22.4543 21.321C22.9686 21.6168 23.624 21.442 23.9198 20.9311C24.2156 20.4168 24.0408 19.7613 23.5299 19.4656L17.9198 16.2286V8.60844C17.9198 8.01348 17.4392 7.53281 16.8442 7.53281C16.256 7.52945 15.7719 8.01349 15.7719 8.6051ZM75.15 54.3631C72.4912 51.7043 68.8172 50.0573 64.7603 50.0573C60.7034 50.0573 57.0292 51.701 54.3706 54.3631C51.7118 57.0219 50.0647 60.6959 50.0647 64.7528C50.0647 68.8099 51.7085 72.4839 54.3706 75.1425C57.0294 77.8013 60.7034 79.4484 64.7603 79.4484C68.8172 79.4484 72.4914 77.8046 75.15 75.1425C77.8088 72.4837 79.4558 68.8097 79.4558 64.7528C79.4525 60.6957 77.8088 57.0217 75.15 54.3631ZM64.7603 54.0606C63.1805 54.0606 61.7485 54.7026 60.7133 55.7379C59.678 56.7732 59.036 58.2051 59.036 59.7849C59.036 61.3647 59.678 62.7967 60.7133 63.8319C61.5368 64.6555 62.609 65.2269 63.8091 65.4286C61.6645 65.6471 59.7351 66.5883 58.2897 68.0034C56.6225 69.6336 55.5906 71.8824 55.5906 74.3664C55.5906 74.9613 56.0713 75.442 56.6662 75.442H72.8609C73.4558 75.442 73.9365 74.9613 73.9365 74.3664C73.9365 71.8824 72.9046 69.6336 71.2374 68.0034C69.7886 66.5883 67.8626 65.6437 65.718 65.4286C66.918 65.2269 67.9903 64.6555 68.8139 63.8319C69.8491 62.7967 70.4911 61.3647 70.4911 59.7849C70.4911 58.2051 69.8491 56.7732 68.8139 55.7379C67.7719 54.7026 66.3401 54.0606 64.7603 54.0606ZM67.2847 57.2606C66.6393 56.6153 65.7451 56.2153 64.7569 56.2153C63.7687 56.2153 62.8779 56.6153 62.2292 57.2606C61.5805 57.906 61.1839 58.8002 61.1839 59.7884C61.1839 60.7766 61.5839 61.6673 62.2292 62.3161C62.8746 62.9615 63.7687 63.3614 64.7569 63.3614C65.7451 63.3614 66.6359 62.9614 67.2847 62.3161C67.93 61.6673 68.33 60.7766 68.33 59.7884C68.3334 58.8002 67.9333 57.9094 67.2847 57.2606ZM57.8226 73.2978H71.6947C71.4594 71.8423 70.7535 70.5449 69.7385 69.5499C68.4678 68.3096 66.7066 67.5398 64.7603 67.5398C62.8141 67.5398 61.0527 68.3096 59.7821 69.5499C58.7636 70.5414 58.0578 71.8423 57.8226 73.2978Z" fill="#985B3C"/>
</svg>
