<svg width="242" height="338" viewBox="0 0 242 338" fill="none" xmlns="http://www.w3.org/2000/svg">
<path d="M103.462 89.455L91.9131 119.167L119.965 90.663L220.247 98L241.58 0L73.2471 5.333L83.5801 88L103.462 89.455ZM229.58 8L214.413 90.667L89.2471 79L83.2471 12.667L229.58 8Z" fill="black"/>
<path d="M4.99416 151.958L38.4202 164.995V208.666V227.606V325.606C38.4202 332.436 44.0932 337.969 50.9192 337.969C57.7472 337.969 63.4202 332.436 63.4202 325.606V235.664H68.4202V325.606C68.4202 332.436 74.0932 337.969 80.9192 337.969C87.7472 337.969 93.4202 332.436 93.4202 325.606V227.606V208.666V175.578C97.4202 184.875 101.65 203.606 99.5942 238.745C99.3362 243.156 102.591 246.941 107.002 247.199C107.161 247.208 107.263 247.213 107.421 247.213C111.625 247.213 115.123 243.932 115.372 239.68C117.844 197.432 112.546 169.869 99.6532 157.755C94.0372 152.478 88.5432 151.663 85.7302 151.598C85.5712 151.588 85.4072 151.663 85.2462 151.663H84.2492C79.7102 156.663 73.1792 159.675 65.9302 159.675C58.4882 159.675 51.8072 156.331 47.2582 151.124L33.9652 145.953L42.7562 143.615C41.7092 140.873 41.1312 137.897 41.1312 134.792C41.1312 132.133 41.5562 129.57 42.3342 127.168L6.06916 136.766C2.71816 137.653 0.204164 140.596 0.0131642 144.056C-0.179836 147.517 1.76216 150.706 4.99416 151.958Z" fill="black"/>
<path d="M43.4292 134.787C43.4292 147.214 53.5032 157.287 65.9292 157.287C78.3572 157.287 88.4292 147.214 88.4292 134.787C88.4292 122.36 78.3572 112.287 65.9292 112.287C53.5042 112.287 43.4292 122.36 43.4292 134.787ZM82.9142 139.671L82.6482 142.659C68.6342 141.412 59.6792 151.7 59.5902 151.804L57.3042 149.862C57.7062 149.388 67.3152 138.281 82.9142 139.671Z" fill="black"/>
<path d="M106.99 45.1007C108.597 41.098 109.627 39.1105 110.079 39.1382C110.133 39.1414 110.192 39.1517 110.258 39.1691C110.47 39.1955 110.715 39.1236 110.992 38.9536C111.356 38.6819 111.769 38.4801 112.232 38.3481C112.707 38.2169 113.163 38.1847 113.6 38.2514C114.619 38.4073 115.232 38.9857 115.437 39.9869L115.434 40.0467C115.356 40.229 115.28 40.378 115.206 40.4937L115.286 40.4986C114.928 40.8908 114.576 41.4102 114.229 42.0569C113.883 42.6903 113.619 43.1885 113.436 43.5513C113.254 43.9009 113 44.3462 112.673 44.8872C112.346 45.4283 111.965 46.0929 111.529 46.8811C111.107 47.6702 110.665 48.4513 110.204 49.2246C109.102 51.0808 108.032 52.5248 106.993 53.5567C106.464 54.1254 105.781 54.3775 104.943 54.3129C104.585 54.2777 104.245 54.1633 103.922 53.97C103.6 53.7766 103.357 53.4946 103.193 53.1239L102.85 51.8406C102.668 51.9764 102.457 52.1505 102.217 52.3629C101.977 52.5753 101.723 52.7936 101.456 53.0176C100.836 53.5408 100.366 53.8059 100.045 53.813C99.7237 53.8201 99.4509 53.8034 99.2263 53.7629C99.0008 53.7358 98.7907 53.6762 98.596 53.5841C98.1541 53.3834 97.8816 53.0328 97.7787 52.5323C97.6916 50.2427 97.9826 47.3417 98.6516 43.8293C98.8243 42.9716 98.9828 42.1264 99.1273 41.2936C99.426 40.123 99.9039 39.2973 100.561 38.8165C101.121 38.3966 101.648 38.2953 102.143 38.5125C102.364 38.6062 102.529 38.7499 102.637 38.9435C102.746 39.1372 102.772 39.3658 102.716 39.6296C102.693 40.443 102.649 41.0481 102.584 41.4449C102.49 42.1204 102.439 42.6183 102.433 42.9385C102.427 43.2587 102.404 43.5245 102.364 43.7358C102.339 43.9346 102.314 44.1267 102.289 44.3123C102.278 44.4853 102.276 44.6321 102.282 44.7527C102.302 44.8607 102.354 44.884 102.438 44.8223C102.784 44.1889 103.072 43.7323 103.303 43.4526C103.534 43.1728 103.779 42.8806 104.038 42.5758C104.431 42.2659 104.765 42.1594 105.04 42.2563C105.184 42.2919 105.334 42.3545 105.489 42.4441C105.645 42.5204 105.854 42.5933 106.117 42.6628C106.281 42.8198 106.384 42.9864 106.427 43.1627C106.464 43.2051 106.502 43.2474 106.539 43.2898C106.578 43.3189 106.602 43.3604 106.612 43.4145C106.636 43.456 106.663 43.5579 106.693 43.72C106.737 43.883 106.779 44.0592 106.821 44.2488C106.864 44.4251 106.9 44.6009 106.929 44.7764C106.959 44.9385 106.979 45.0466 106.99 45.1007ZM106.957 53.4944C106.955 53.521 106.955 53.5276 106.956 53.5143C106.971 53.4885 106.979 53.4623 106.981 53.4357L106.957 53.4944ZM123.123 52.3992C123.08 53.1045 123.129 53.722 123.27 54.2516C123.244 54.6775 123.126 54.9708 122.916 55.1316C122.705 55.3057 122.446 55.3834 122.14 55.3647C121.846 55.3601 121.537 55.2811 121.213 55.1276C120.887 54.9875 120.611 54.817 120.382 54.616C120.168 54.4158 120.03 54.2605 119.97 54.15C119.911 54.0261 119.815 53.8466 119.682 53.6114C119.52 52.5462 119.456 51.8543 119.489 51.5357C119.522 51.2171 119.565 50.9459 119.619 50.7221C118.932 51.0274 118.455 51.2988 118.186 51.5362C117.692 51.9735 117.263 52.5484 116.899 53.2608C116.756 53.8399 116.651 54.1407 116.583 54.1632C116.514 54.1991 116.426 54.2204 116.319 54.2272C116.211 54.234 116.095 54.2737 115.971 54.3462C115.846 54.4187 115.729 54.4783 115.619 54.5251C115.509 54.5718 115.4 54.6185 115.29 54.6652C115.028 54.7961 114.857 54.8592 114.777 54.8543C114.004 55.0474 113.285 54.8966 112.621 54.4018C112.34 54.1843 112.13 53.9176 111.989 53.6017C111.848 53.2725 111.829 52.9307 111.931 52.5763C112.654 50.1492 113.593 47.6886 114.747 45.1944C115.454 43.6748 116.115 42.4795 116.73 41.6088C116.876 41.404 117.023 41.1859 117.17 40.9544C117.479 40.4924 117.692 40.1782 117.809 40.0117C117.697 39.6575 117.716 39.3581 117.864 39.1134C118.027 38.8561 118.252 38.6629 118.541 38.5336C118.843 38.3918 119.182 38.3057 119.558 38.2752C119.934 38.2448 120.287 38.2597 120.618 38.32C121.409 38.4886 121.816 38.8274 121.838 39.3364C121.743 39.571 121.613 39.8502 121.446 40.174C121.293 40.4986 121.132 40.8294 120.965 41.1665C120.811 41.491 120.659 41.7956 120.508 42.0803C120.37 42.3657 120.264 42.5796 120.188 42.722C120.127 42.8518 120.026 43.0861 119.885 43.4247C119.758 43.7509 119.616 44.1096 119.458 44.5007C119.315 44.8793 119.18 45.2317 119.053 45.5579L118.771 46.242C118.706 46.4251 118.602 46.7059 118.459 47.0845C118.316 47.4498 118.161 47.9079 117.994 48.4587C118.175 48.3362 118.324 48.1917 118.441 48.0252C118.572 47.8462 118.751 47.6501 118.978 47.4369C119.218 47.2245 119.518 47.0224 119.877 46.8306C120.25 46.6263 120.638 46.5032 121.041 46.461C121.915 46.3675 122.684 46.695 123.346 47.4435C123.846 48.0084 123.963 48.8171 123.698 49.8696C123.592 50.3039 123.465 50.7436 123.317 51.1888C123.184 51.6214 123.119 52.0249 123.123 52.3992ZM125.059 48.5301C125.106 47.9853 125.093 47.537 125.021 47.1853C124.949 46.8336 124.967 46.5475 125.074 46.3269C125.195 46.0939 125.365 45.9373 125.583 45.8572C125.815 45.7778 126.076 45.7671 126.367 45.8249C126.671 45.8703 126.965 45.9751 127.249 46.1394C127.935 46.5019 128.4 46.9845 128.643 47.5872C128.692 47.884 128.643 48.2484 128.496 48.6803C128.364 49.0996 128.21 49.5377 128.035 49.9946C127.861 50.4381 127.694 50.8754 127.534 51.3064C127.375 51.7241 127.3 52.0802 127.309 52.3746C127.668 52.1829 127.987 51.8818 128.265 51.4714C128.558 51.0618 128.825 50.6239 129.067 50.1579C129.323 49.6793 129.559 49.2061 129.775 48.7384C130.004 48.2715 130.214 47.9036 130.404 47.6347C130.607 47.3667 130.767 47.156 130.883 47.0028C131 46.8363 131.116 46.6898 131.231 46.5632C131.417 46.3476 131.657 46.1418 131.95 45.946C132.034 45.8843 132.272 45.9123 132.666 46.0298C133.074 46.1349 133.369 46.2131 133.553 46.2644C133.751 46.3033 133.885 46.2981 133.955 46.2489L134.247 46.0664C134.631 45.9029 135.069 45.9364 135.563 46.167C136.042 46.41 136.282 46.7519 136.282 47.1927C136.267 47.2052 136.259 47.2314 136.257 47.2714L136.315 47.295L136.168 47.4062C136.065 47.5735 135.984 47.6888 135.927 47.7521C135.884 47.8029 135.785 47.8837 135.631 47.9945C134.667 48.9107 133.519 50.6505 132.186 53.214C131.854 53.8482 131.552 54.4175 131.28 54.9219C131.626 55.1701 131.881 55.4795 132.045 55.8503C132.21 56.221 132.186 56.6136 131.973 57.0281C130.815 57.8389 130.146 58.6261 129.965 59.3899C129.869 59.8649 129.762 60.199 129.643 60.3921C129.538 60.5861 129.373 60.7697 129.149 60.943C128.398 61.4313 127.561 61.2466 126.638 60.3887C125.988 59.6543 126.008 58.7872 126.697 57.7874C126.874 57.5177 127.045 57.2343 127.21 56.9371C127.45 56.4977 127.831 55.8463 128.351 54.9832C127.166 55.5786 126.115 55.501 125.2 54.7503C124.553 54.1898 124.385 52.9973 124.697 51.173C124.905 49.9567 125.026 49.0758 125.059 48.5301ZM153.031 41.2642L153.11 41.289C153.431 41.509 153.703 41.7528 153.927 42.0203C154.165 42.2753 154.376 42.5486 154.558 42.8403C154.755 43.1195 154.903 43.4225 155.003 43.7492C155.434 45.0045 154.911 46.3484 153.434 47.7809C152.81 48.3839 152.118 48.8893 151.358 49.297C151.536 49.4415 151.703 49.5519 151.859 49.6282C152.028 49.692 152.261 49.8198 152.557 50.0115C152.853 50.1899 153.033 50.5149 153.098 50.9864C153.164 51.4446 153.106 51.9553 152.924 52.5186C152.756 53.0828 152.467 53.6595 152.057 54.2489C151.661 54.8258 151.156 55.3359 150.541 55.7792C149.142 56.8024 147.57 57.1738 145.824 56.8934C145.571 56.8779 145.413 56.8482 145.348 56.8042C145.284 56.7602 145.233 56.7236 145.195 56.6946C145.157 56.6655 145.071 56.6403 144.939 56.6188C144.59 56.8646 144.201 57.0078 143.771 57.0483C143.341 57.0888 142.937 57.0307 142.559 56.874C142.195 56.7181 141.889 56.4724 141.642 56.1367C141.409 55.8018 141.308 55.3749 141.34 54.8558C141.401 54.5122 141.484 54.2435 141.59 54.0496C141.557 53.9273 141.546 53.7797 141.557 53.6067C142.156 51.2256 142.695 49.4084 143.172 48.1552C144.14 45.6629 145.135 43.8002 146.159 42.5671C146.998 41.523 148.112 40.8832 149.503 40.6476C150.839 40.4221 152.015 40.6276 153.031 41.2642ZM145.971 54.8185C146.133 54.7883 146.267 54.7898 146.371 54.8229C146.49 54.8435 146.63 54.8454 146.792 54.8286C147.18 54.8123 147.714 54.6045 148.393 54.2052C148.831 53.8178 149.075 53.4254 149.126 53.0277C149.177 52.6301 149.133 52.3736 148.993 52.2582C148.854 52.1294 148.658 52.0573 148.405 52.0419C148.165 52.0272 147.89 52.0505 147.579 52.1116C147.282 52.1602 146.994 52.1826 146.713 52.1789L146.711 52.2188C146.628 52.4809 146.547 52.7097 146.469 52.9053C146.39 53.1008 146.318 53.2901 146.254 53.4732C146.107 53.9051 145.986 54.3518 145.891 54.8136L145.971 54.8185ZM150.319 44.6649C149.923 44.5873 149.471 44.8736 148.964 45.5238C148.645 45.9318 148.379 46.5634 148.167 47.4187C148.453 47.316 148.732 47.2329 149.003 47.1693C149.289 47.0932 149.554 47.0093 149.8 46.9175C150.401 46.7004 150.839 46.42 151.114 46.0761C151.428 45.748 151.539 45.4609 151.447 45.2149C151.301 44.9922 151.053 44.7833 150.704 44.5883C150.592 44.675 150.464 44.7005 150.319 44.6649ZM150.024 44.5668L150.084 44.5704L150.024 44.5668ZM156.106 48.9663C155.998 47.0227 156.001 45.4466 156.115 44.238C156.123 43.6641 156.39 43.1327 156.914 42.6438C157.41 42.1798 157.912 41.9367 158.421 41.9144C158.982 41.9087 159.323 42.2434 159.442 42.9186C159.525 43.2977 159.632 43.7384 159.762 44.2406C159.891 44.7428 160.012 45.2712 160.125 45.8258C160.284 45.6351 160.539 45.2967 160.889 44.8105C161.239 44.3243 161.566 43.8901 161.87 43.5079C162.608 42.5779 163.249 41.9358 163.791 41.5816C164.309 41.4129 164.745 41.3862 165.099 41.5013C165.466 41.6039 165.725 41.7533 165.873 41.9494C166.034 42.1463 166.084 42.4232 166.022 42.7801C165.944 43.6169 165.225 44.8953 163.864 46.6155C163.546 47.0101 163.217 47.4709 162.878 47.9978C162.552 48.5256 162.168 49.1166 161.728 49.7709C161.301 50.4127 160.888 51.0554 160.488 51.6988C159.571 53.1522 158.838 54.5434 158.289 55.8724C158.304 55.8466 158.355 55.8831 158.442 55.982C158.531 56.0675 158.61 56.1926 158.68 56.3572C158.868 56.7694 158.828 57.1009 158.559 57.3516C157.879 57.978 157.065 58.3022 156.115 58.3242C155.246 58.3379 154.51 58.1326 153.908 57.7084C153.305 57.3108 153.126 56.8524 153.371 56.3331L153.312 56.3294C153.651 55.5887 154.027 54.8971 154.44 54.2544C154.854 53.5985 155.283 52.9234 155.726 52.2292L156.722 50.6871C156.493 50.7265 156.316 50.5554 156.193 50.1738C156.105 49.8612 156.076 49.4587 156.106 48.9663ZM168.652 54.2981C169.573 54.4506 170.257 54.5405 170.704 54.5678C171.167 54.5962 171.865 54.5748 172.8 54.5036C173.081 54.617 173.242 54.7471 173.281 54.8937C173.32 55.0404 173.326 55.1931 173.301 55.3518C173.276 55.4946 173.275 55.6388 173.298 55.7845C173.321 55.9302 173.466 56.0592 173.731 56.1716C173.872 56.2283 173.903 56.3745 173.825 56.6102C173.763 56.8308 173.62 57.0705 173.396 57.3293C172.827 57.9838 172.175 58.4248 171.44 58.6524C170.272 58.8695 169.36 58.982 168.702 58.9899C167.611 59.0033 166.432 58.8911 165.164 58.6533C163.774 58.3118 163.131 57.6874 163.235 56.78C163.44 53.4263 164.381 50.1015 166.057 46.8057C166.603 45.733 167.217 44.6084 167.898 43.4318C168.042 43.1841 168.131 42.901 168.167 42.5826C168.218 42.2651 168.261 41.9552 168.296 41.6527C168.33 41.3503 168.395 41.0817 168.489 40.847C168.584 40.6124 168.762 40.4549 169.023 40.3748C172.426 39.2524 175.084 38.902 176.998 39.3236C177.668 39.3806 178.093 39.6391 178.273 40.0989C178.47 40.5438 178.464 41.0323 178.256 41.5646C178.063 42.0978 177.704 42.5888 177.18 43.0376C176.671 43.4875 176.046 43.7458 175.305 43.8126C174.346 44.0265 173.76 44.175 173.546 44.2581C173.135 44.4254 172.832 44.6633 172.637 44.972C172.392 45.3096 172.164 45.6323 171.953 45.94C171.742 46.2477 171.585 46.5827 171.483 46.9452L171.354 47.4663C171.649 47.6286 172.013 47.699 172.448 47.6774C172.899 47.6409 173.309 47.6099 173.68 47.5845C174.067 47.544 174.371 47.5546 174.591 47.6162C174.828 47.6787 174.861 47.9212 174.691 48.3436C174.538 48.751 174.262 49.207 173.862 49.7116C173.479 50.2171 172.952 50.5696 172.283 50.7691C171.862 50.8236 171.571 50.8699 171.408 50.908C171.263 50.9312 171.15 50.9483 171.069 50.9594C170.956 50.9685 170.635 50.9729 170.106 50.9726C169.277 52.2043 168.762 53.1667 168.559 53.8596C168.478 54.1431 168.509 54.2893 168.652 54.2981ZM177.997 47.7924C178.414 46.6544 178.745 45.7803 178.991 45.1702C179.255 44.5438 179.506 43.9861 179.744 43.4971C179.983 43.008 180.246 42.5379 180.534 42.0866C180.839 41.6364 181.159 41.2306 181.494 40.869C181.847 40.4912 182.212 40.2009 182.589 39.9982C182.966 39.7955 183.354 39.7063 183.752 39.7307C184.15 39.755 184.555 39.9361 184.969 40.274C185.555 42.0464 185.908 43.2315 186.028 43.8293C186.183 44.707 186.298 45.9384 186.375 47.5233C186.555 47.1349 186.753 46.7303 186.97 46.3094C187.205 45.8723 187.432 45.4346 187.65 44.9964C188.256 43.8874 188.646 43.043 188.82 42.4632C189.275 41.2754 190.118 40.4152 191.349 39.8827C192.418 39.4272 193.397 39.3221 194.285 39.5674C194.644 39.6588 194.886 39.8212 195.011 40.0546C195.153 40.2891 195.139 40.5226 194.968 40.7553C194.815 40.9891 194.749 41.2194 194.77 41.4465C194.809 41.6573 194.837 41.9108 194.853 42.207C194.857 43.006 194.675 43.7069 194.308 44.3096C193.942 44.8951 193.558 45.6357 193.156 46.5315C192.755 47.41 192.342 48.3485 191.916 49.347C191.507 50.3466 191.089 51.363 190.661 52.3961C190.234 53.4293 189.82 54.3678 189.421 55.2117C188.538 57.1547 187.848 58.2152 187.351 58.3932C186.669 58.7509 186.171 58.9549 185.855 59.005C185.453 59.0499 184.891 59.0155 184.168 58.9019C183.721 58.8397 183.367 58.2364 183.107 57.0917C182.953 56.4745 182.832 55.6248 182.742 54.5426C182.579 52.6572 182.452 51.6162 182.36 51.4195C181.53 53.6263 180.95 55.0148 180.62 55.5851C180.307 56.1564 180.067 56.5324 179.9 56.7132C179.75 56.8951 179.561 57.1353 179.335 57.4341C179.072 58.0431 178.507 58.4688 177.642 58.7111C176.898 58.9435 176.238 58.9465 175.661 58.7202C175.034 58.4735 174.868 58.0639 175.164 57.4915C175.481 55.427 176.425 52.194 177.997 47.7924ZM219.265 43.0789C219.388 45.2664 217.66 47.4798 214.082 49.7188C213.149 50.303 212.272 50.8371 211.451 51.3212C210.631 51.8054 209.92 52.2535 209.317 52.6655C208.738 53.0575 208.406 53.4112 208.323 53.7267C208.249 54.2352 207.978 54.6461 207.51 54.9594C207.042 55.2728 206.526 55.487 205.964 55.6022C205.402 55.6961 204.846 55.7049 204.295 55.6284C203.744 55.552 203.349 55.3782 203.109 55.107C202.591 53.7929 203.025 52.2806 204.412 50.5701C205.035 49.8174 205.754 49.0706 206.569 48.3296C207.385 47.5673 208.178 46.8357 208.947 46.1347C209.739 45.4137 210.444 44.7301 211.06 44.0839C211.77 43.3151 212.22 42.5946 212.411 41.9223L212.315 41.9164C212.158 42.0351 211.999 42.1857 211.839 42.3682C211.7 42.5307 211.401 42.7154 210.939 42.9223C210.478 43.1292 210.061 43.2961 209.69 43.423C209.34 43.5512 209.001 43.6801 208.673 43.8096C208.367 43.9191 208.17 43.9926 208.082 44.03C208.016 44.0686 207.938 44.1067 207.851 44.1441C207.784 44.1827 207.686 44.2195 207.555 44.2542L207.033 44.4146C205.153 44.7485 203.848 44.4122 203.119 43.4058C202.863 43.0482 202.636 42.5641 202.438 41.9536C202.256 41.0875 202.552 40.101 203.325 38.9942C203.982 38.0298 204.774 37.3195 205.699 36.8631C206.626 36.3855 207.771 36.0173 209.133 35.7587C210.518 35.4801 211.87 35.3811 213.191 35.4618C214.511 35.5426 215.712 35.8191 216.795 36.2914C217.877 36.7637 218.668 37.4639 219.167 38.3921C219.355 38.8097 219.392 39.2502 219.278 39.7134C219.165 40.1767 219.057 40.5441 218.955 40.8157C218.875 41.0673 218.829 41.2996 218.816 41.5125C218.824 41.7268 218.894 41.9768 219.026 42.2628C219.16 42.5274 219.239 42.7994 219.265 43.0789ZM205.976 60.1234C205.474 60.9904 204.849 61.604 204.1 61.9643C203.35 62.3459 202.634 62.5159 201.953 62.4742C201.291 62.4551 200.749 62.2403 200.325 61.8296C199.901 61.419 199.755 60.8436 199.886 60.1036C199.992 59.0628 200.557 58.3814 201.582 58.0593C202.89 57.6264 204.094 57.7 205.191 58.28C206.206 58.8123 206.467 59.4268 205.976 60.1234Z" fill="black"/>
</svg>
