<svg width="30" height="30" viewBox="0 0 30 30" fill="none" xmlns="http://www.w3.org/2000/svg">
<path fill-rule="evenodd" clip-rule="evenodd" d="M15 27.5C21.9037 27.5 27.5 21.9037 27.5 15C27.5 8.09625 21.9037 2.5 15 2.5C8.09625 2.5 2.5 8.09625 2.5 15C2.5 21.9037 8.09625 27.5 15 27.5ZM21.7138 11.0437C21.7722 10.9835 21.818 10.9121 21.8482 10.8338C21.8785 10.7555 21.8927 10.6719 21.89 10.588C21.8872 10.5041 21.8676 10.4216 21.8322 10.3454C21.7969 10.2692 21.7466 10.201 21.6843 10.1447C21.622 10.0884 21.549 10.0452 21.4697 10.0178C21.3903 9.99033 21.3063 9.97914 21.2225 9.98489C21.1388 9.99063 21.057 10.0132 20.9822 10.0512C20.9073 10.0893 20.8409 10.142 20.7869 10.2063L13.3 18.4794L9.18125 14.5475C9.06141 14.433 8.90097 14.3707 8.73523 14.3745C8.5695 14.3782 8.41204 14.4477 8.2975 14.5675C8.18296 14.6873 8.12072 14.8478 8.12447 15.0135C8.12822 15.1793 8.19766 15.3367 8.3175 15.4513L12.9012 19.8263L13.3656 20.27L13.7962 19.7938L21.7138 11.0437Z" fill="#985B3C"/>
</svg>
