<svg width="1924" height="842" viewBox="0 0 1924 842" fill="none" xmlns="http://www.w3.org/2000/svg">
<path d="M9 433V9H319C539.914 9 719 188.086 719 409V833H409C188.086 833 9 653.914 9 433Z" fill="black" stroke="black" stroke-width="18"/>
<path d="M1000.1 289.4V500H948.8V373.7L901.7 500H860.3L812.9 373.4V500H761.6V289.4H822.2L881.3 435.2L939.8 289.4H1000.1ZM1062.79 315.2C1053.79 315.2 1046.39 312.6 1040.59 307.4C1034.99 302 1032.19 295.4 1032.19 287.6C1032.19 279.6 1034.99 273 1040.59 267.8C1046.39 262.4 1053.79 259.7 1062.79 259.7C1071.59 259.7 1078.79 262.4 1084.39 267.8C1090.19 273 1093.09 279.6 1093.09 287.6C1093.09 295.4 1090.19 302 1084.39 307.4C1078.79 312.6 1071.59 315.2 1062.79 315.2ZM1088.29 332.6V500H1036.99V332.6H1088.29ZM1193.57 502.4C1178.97 502.4 1165.97 499.9 1154.57 494.9C1143.17 489.9 1134.17 483.1 1127.57 474.5C1120.97 465.7 1117.27 455.9 1116.47 445.1H1167.17C1167.77 450.9 1170.47 455.6 1175.27 459.2C1180.07 462.8 1185.97 464.6 1192.97 464.6C1199.37 464.6 1204.27 463.4 1207.67 461C1211.27 458.4 1213.07 455.1 1213.07 451.1C1213.07 446.3 1210.57 442.8 1205.57 440.6C1200.57 438.2 1192.47 435.6 1181.27 432.8C1169.27 430 1159.27 427.1 1151.27 424.1C1143.27 420.9 1136.37 416 1130.57 409.4C1124.77 402.6 1121.87 393.5 1121.87 382.1C1121.87 372.5 1124.47 363.8 1129.67 356C1135.07 348 1142.87 341.7 1153.07 337.1C1163.47 332.5 1175.77 330.2 1189.97 330.2C1210.97 330.2 1227.47 335.4 1239.47 345.8C1251.67 356.2 1258.67 370 1260.47 387.2H1213.07C1212.27 381.4 1209.67 376.8 1205.27 373.4C1201.07 370 1195.47 368.3 1188.47 368.3C1182.47 368.3 1177.87 369.5 1174.67 371.9C1171.47 374.1 1169.87 377.2 1169.87 381.2C1169.87 386 1172.37 389.6 1177.37 392C1182.57 394.4 1190.57 396.8 1201.37 399.2C1213.77 402.4 1223.87 405.6 1231.67 408.8C1239.47 411.8 1246.27 416.8 1252.07 423.8C1258.07 430.6 1261.17 439.8 1261.37 451.4C1261.37 461.2 1258.57 470 1252.97 477.8C1247.57 485.4 1239.67 491.4 1229.27 495.8C1219.07 500.2 1207.17 502.4 1193.57 502.4ZM1360.85 502.4C1346.25 502.4 1333.25 499.9 1321.85 494.9C1310.45 489.9 1301.45 483.1 1294.85 474.5C1288.25 465.7 1284.55 455.9 1283.75 445.1H1334.45C1335.05 450.9 1337.75 455.6 1342.55 459.2C1347.35 462.8 1353.25 464.6 1360.25 464.6C1366.65 464.6 1371.55 463.4 1374.95 461C1378.55 458.4 1380.35 455.1 1380.35 451.1C1380.35 446.3 1377.85 442.8 1372.85 440.6C1367.85 438.2 1359.75 435.6 1348.55 432.8C1336.55 430 1326.55 427.1 1318.55 424.1C1310.55 420.9 1303.65 416 1297.85 409.4C1292.05 402.6 1289.15 393.5 1289.15 382.1C1289.15 372.5 1291.75 363.8 1296.95 356C1302.35 348 1310.15 341.7 1320.35 337.1C1330.75 332.5 1343.05 330.2 1357.25 330.2C1378.25 330.2 1394.75 335.4 1406.75 345.8C1418.95 356.2 1425.95 370 1427.75 387.2H1380.35C1379.55 381.4 1376.95 376.8 1372.55 373.4C1368.35 370 1362.75 368.3 1355.75 368.3C1349.75 368.3 1345.15 369.5 1341.95 371.9C1338.75 374.1 1337.15 377.2 1337.15 381.2C1337.15 386 1339.65 389.6 1344.65 392C1349.85 394.4 1357.85 396.8 1368.65 399.2C1381.05 402.4 1391.15 405.6 1398.95 408.8C1406.75 411.8 1413.55 416.8 1419.35 423.8C1425.35 430.6 1428.45 439.8 1428.65 451.4C1428.65 461.2 1425.85 470 1420.25 477.8C1414.85 485.4 1406.95 491.4 1396.55 495.8C1386.35 500.2 1374.45 502.4 1360.85 502.4ZM1485.84 315.2C1476.84 315.2 1469.44 312.6 1463.64 307.4C1458.04 302 1455.24 295.4 1455.24 287.6C1455.24 279.6 1458.04 273 1463.64 267.8C1469.44 262.4 1476.84 259.7 1485.84 259.7C1494.64 259.7 1501.84 262.4 1507.44 267.8C1513.24 273 1516.14 279.6 1516.14 287.6C1516.14 295.4 1513.24 302 1507.44 307.4C1501.84 312.6 1494.64 315.2 1485.84 315.2ZM1511.34 332.6V500H1460.04V332.6H1511.34ZM1624.71 502.4C1608.31 502.4 1593.51 498.9 1580.31 491.9C1567.31 484.9 1557.01 474.9 1549.41 461.9C1542.01 448.9 1538.31 433.7 1538.31 416.3C1538.31 399.1 1542.11 384 1549.71 371C1557.31 357.8 1567.71 347.7 1580.91 340.7C1594.11 333.7 1608.91 330.2 1625.31 330.2C1641.71 330.2 1656.51 333.7 1669.71 340.7C1682.91 347.7 1693.31 357.8 1700.91 371C1708.51 384 1712.31 399.1 1712.31 416.3C1712.31 433.5 1708.41 448.7 1700.61 461.9C1693.01 474.9 1682.51 484.9 1669.11 491.9C1655.91 498.9 1641.11 502.4 1624.71 502.4ZM1624.71 458C1634.51 458 1642.81 454.4 1649.61 447.2C1656.61 440 1660.11 429.7 1660.11 416.3C1660.11 402.9 1656.71 392.6 1649.91 385.4C1643.31 378.2 1635.11 374.6 1625.31 374.6C1615.31 374.6 1607.01 378.2 1600.41 385.4C1593.81 392.4 1590.51 402.7 1590.51 416.3C1590.51 429.7 1593.71 440 1600.11 447.2C1606.71 454.4 1614.91 458 1624.71 458ZM1841.53 330.8C1861.13 330.8 1876.73 337.2 1888.33 350C1900.13 362.6 1906.03 380 1906.03 402.2V500H1855.03V409.1C1855.03 397.9 1852.13 389.2 1846.33 383C1840.53 376.8 1832.73 373.7 1822.93 373.7C1813.13 373.7 1805.33 376.8 1799.53 383C1793.73 389.2 1790.83 397.9 1790.83 409.1V500H1739.53V332.6H1790.83V354.8C1796.03 347.4 1803.03 341.6 1811.83 337.4C1820.63 333 1830.53 330.8 1841.53 330.8Z" fill="black"/>
<path d="M214.2 502.1C194.8 502.1 177.2 497.6 161.4 488.6C145.6 479.4 133.1 466.7 123.9 450.5C114.9 434.1 110.4 415.6 110.4 395C110.4 374.4 114.9 356 123.9 339.8C133.1 323.4 145.6 310.7 161.4 301.7C177.2 292.5 194.8 287.9 214.2 287.9C233.8 287.9 251.5 292.5 267.3 301.7C283.1 310.7 295.5 323.4 304.5 339.8C313.5 356 318 374.4 318 395C318 415.6 313.5 434.1 304.5 450.5C295.5 466.7 283.1 479.4 267.3 488.6C251.5 497.6 233.8 502.1 214.2 502.1ZM214.2 483.8C229.8 483.8 243.8 480.2 256.2 473C268.6 465.8 278.4 455.5 285.6 442.1C292.8 428.5 296.4 412.8 296.4 395C296.4 377.2 292.8 361.6 285.6 348.2C278.4 334.8 268.6 324.5 256.2 317.3C243.8 310.1 229.8 306.5 214.2 306.5C198.6 306.5 184.6 310.1 172.2 317.3C159.8 324.5 150 334.8 142.8 348.2C135.6 361.6 132 377.2 132 395C132 412.8 135.6 428.5 142.8 442.1C150 455.5 159.8 465.8 172.2 473C184.6 480.2 198.6 483.8 214.2 483.8ZM498.326 336.2V500H477.326V471.2C472.526 481.4 465.126 489.2 455.126 494.6C445.126 500 433.926 502.7 421.526 502.7C401.926 502.7 385.926 496.7 373.526 484.7C361.126 472.5 354.926 454.9 354.926 431.9V336.2H375.626V429.5C375.626 447.3 380.026 460.9 388.826 470.3C397.826 479.7 410.026 484.4 425.426 484.4C441.226 484.4 453.826 479.4 463.226 469.4C472.626 459.4 477.326 444.7 477.326 425.3V336.2H498.326ZM567.27 365.3C571.87 355.1 578.87 347.2 588.27 341.6C597.87 336 609.57 333.2 623.37 333.2V355.1H617.67C602.47 355.1 590.27 359.2 581.07 367.4C571.87 375.6 567.27 389.3 567.27 408.5V500H546.27V336.2H567.27V365.3Z" fill="white"/>
</svg>
