<svg width="1440" height="5282" viewBox="0 0 1440 5282" fill="none" xmlns="http://www.w3.org/2000/svg">
<g clip-path="url(#clip0_242_2)">
<rect width="1440" height="5282" fill="white"/>
<circle cx="1307.82" cy="1674.18" r="135.521" stroke="#FFA700" stroke-opacity="0.5" stroke-width="0.5"/>
<circle cx="1307.5" cy="1674.5" r="183.257" stroke="#FFA700" stroke-opacity="0.5" stroke-width="0.486737"/>
<circle cx="1307.5" cy="1674.5" r="229.196" stroke="#FFA700" stroke-opacity="0.5" stroke-width="0.608753"/>
<circle cx="1437" cy="1716" r="7" fill="#FFA700"/>
<circle cx="1124" cy="1671" r="7" fill="#FFA700"/>
<circle cx="1124" cy="1538" r="7" fill="#FFA700"/>
<circle cx="700.817" cy="-0.81543" r="135.521" stroke="#FFA700" stroke-opacity="0.5" stroke-width="0.5"/>
<circle cx="700.5" cy="-0.5" r="183.257" stroke="#FFA700" stroke-opacity="0.5" stroke-width="0.486737"/>
<circle cx="700.5" cy="-0.5" r="229.196" stroke="#FFA700" stroke-opacity="0.5" stroke-width="0.608753"/>
<circle cx="830" cy="41" r="7" fill="#FFA700"/>
<circle cx="850" cy="173" r="7" fill="#FFA700"/>
<circle cx="517" cy="-4" r="7" fill="#FFA700"/>
<circle cx="314.817" cy="2365.18" r="135.521" stroke="#FFA700" stroke-opacity="0.5" stroke-width="0.5"/>
<circle cx="314.5" cy="2365.5" r="183.257" stroke="#FFA700" stroke-opacity="0.5" stroke-width="0.486737"/>
<circle cx="314.5" cy="2365.5" r="229.196" stroke="#FFA700" stroke-opacity="0.5" stroke-width="0.608753"/>
<circle cx="523" cy="2271" r="7" fill="#FFA700"/>
<circle cx="444" cy="2407" r="7" fill="#FFA700"/>
<circle cx="464" cy="2539" r="7" fill="#FFA700"/>
<circle cx="131" cy="2362" r="7" fill="#FFA700"/>
<circle cx="131" cy="2229" r="7" fill="#FFA700"/>
<circle cx="169.93" cy="1133.07" r="183.942" stroke="#FFA700" stroke-opacity="0.5" stroke-width="0.678649"/>
<circle cx="169.502" cy="1133.5" r="248.734" stroke="#FFA700" stroke-opacity="0.5" stroke-width="0.660648"/>
<circle cx="169.5" cy="1133.5" r="311.087" stroke="#FFA700" stroke-opacity="0.5" stroke-width="0.82626"/>
<circle cx="452.497" cy="1005.24" r="9.50109" fill="#FFA700"/>
<circle cx="345.271" cy="1189.83" r="9.50109" fill="#FFA700"/>
<circle cx="372.415" cy="1368.99" r="9.50109" fill="#FFA700"/>
<circle cx="860.93" cy="3496.07" r="183.942" stroke="#FFA700" stroke-opacity="0.5" stroke-width="0.678649"/>
<circle cx="860.502" cy="3496.5" r="248.734" stroke="#FFA700" stroke-opacity="0.5" stroke-width="0.660648"/>
<circle cx="860.5" cy="3496.5" r="311.087" stroke="#FFA700" stroke-opacity="0.5" stroke-width="0.82626"/>
<circle cx="1143.5" cy="3368.24" r="9.50109" fill="#FFA700"/>
<circle cx="1036.27" cy="3552.83" r="9.50109" fill="#FFA700"/>
<circle cx="1063.42" cy="3731.99" r="9.50109" fill="#FFA700"/>
<circle cx="611.435" cy="3491.75" r="9.50109" fill="#FFA700"/>
<circle cx="611.435" cy="3311.23" r="9.50109" fill="#FFA700"/>
</g>
<defs>
<clipPath id="clip0_242_2">
<rect width="1440" height="5282" fill="white"/>
</clipPath>
</defs>
</svg>
